<?xml version="1.0" encoding="UTF-8" standalone="no"?>
<svg
   width="48"
   height="48"
   version="1.1"
   viewBox="0 0 12.7 12.7"
   id="svg1197"
   sodipodi:docname="default-folder-saved-search.svg"
   inkscape:version="1.2.2 (b0a8486541, 2022-12-01)"
   xmlns:inkscape="http://www.inkscape.org/namespaces/inkscape"
   xmlns:sodipodi="http://sodipodi.sourceforge.net/DTD/sodipodi-0.dtd"
   xmlns="http://www.w3.org/2000/svg"
   xmlns:svg="http://www.w3.org/2000/svg">
  <defs
     id="defs1201" />
  <sodipodi:namedview
     id="namedview1199"
     pagecolor="#ffffff"
     bordercolor="#666666"
     borderopacity="1.0"
     inkscape:showpageshadow="2"
     inkscape:pageopacity="0.0"
     inkscape:pagecheckerboard="0"
     inkscape:deskcolor="#d1d1d1"
     showgrid="false"
     inkscape:zoom="4.9166667"
     inkscape:cx="14.745763"
     inkscape:cy="24.101695"
     inkscape:window-width="1920"
     inkscape:window-height="1019"
     inkscape:window-x="0"
     inkscape:window-y="0"
     inkscape:window-maximized="1"
     inkscape:current-layer="svg1197" />
  <path
     d="m2.381 1.587s-0.264 0-0.264 0.265v0.265h-0.794s-0.265-2e-3 -0.265 0.262v4.09c0 0.226 0.182 0.408 0.407 0.408h9.77a0.406 0.406 0 0 0 0.407-0.407v-4.089c0-0.264-0.265-0.264-0.265-0.264h-5.556v-0.265c0-0.265-0.265-0.265-0.265-0.265z"
     fill="#ffffff"
     fill-opacity=".976"
     stroke="#000000"
     stroke-opacity=".267"
     stroke-width=".529"
     paint-order="markers stroke fill"
     id="path1187" />
  <path
     d="m2.381 1.587s-0.264 0-0.264 0.265v0.265h-0.794s-0.265-2e-3 -0.265 0.262v4.09c0 0.226 0.182 0.408 0.407 0.408h9.77a0.406 0.406 0 0 0 0.407-0.407v-4.089c0-0.264-0.265-0.264-0.265-0.264h-5.556v-0.265c0-0.265-0.265-0.265-0.265-0.265z"
     fill="#ffffff"
     fill-opacity=".976"
     paint-order="markers stroke fill"
     id="path1189" />
  <path
     d="m6.35 2.908c-0.225 0-0.292 0.212-0.406 0.406l-0.236 0.388h-5.179c-0.264 0-0.264 0.265-0.264 0.265v6.88c0 0.265 0.264 0.265 0.264 0.265h11.642c0.264 0 0.264-0.264 0.264-0.264v-7.673c0-0.265-0.264-0.265-0.264-0.265z"
     fill="#fb8441"
     stroke="#762c02"
     stroke-opacity=".561"
     stroke-width=".529"
     paint-order="markers stroke fill"
     id="path1191" />
  <path
     d="m6.35 2.908c-0.225 0-0.292 0.212-0.406 0.406l-0.236 0.388h-5.179c-0.264 0-0.264 0.265-0.264 0.265v6.88c0 0.265 0.264 0.265 0.264 0.265h11.642c0.264 0 0.264-0.264 0.264-0.264v-7.673c0-0.265-0.264-0.265-0.264-0.265z"
     fill="#fb8441"
     paint-order="markers stroke fill"
     id="path1193"
     style="fill:#f9c470;fill-opacity:1" />
  <path
     d="M6.962 5.556c-.339 0-.676.13-.935.389a1.32 1.32 0 0 0-.165 1.67c-.008.006-.017.01-.025.017L4.473 8.88c-.108.1-.046.326.058.43.104.104.33.166.43.058l1.248-1.364c.007-.008.01-.017.017-.025a1.32 1.32 0 0 0 1.67-.166 1.32 1.32 0 0 0 0-1.868 1.317 1.317 0 0 0-.934-.389zm0 .53a.792.792 0 0 1 .562 1.355.796.796 0 0 1-1.125-1.124.792.792 0 0 1 .563-.232z"
     opacity=".3"
     id="path1195" />
</svg>
