<?xml version="1.0" encoding="UTF-8" standalone="no"?>
<svg
   width="48"
   height="48"
   version="1.1"
   viewBox="0 0 12.7 12.7"
   id="svg1604"
   sodipodi:docname="default-folder-video.svg"
   inkscape:version="1.2.2 (b0a8486541, 2022-12-01)"
   xmlns:inkscape="http://www.inkscape.org/namespaces/inkscape"
   xmlns:sodipodi="http://sodipodi.sourceforge.net/DTD/sodipodi-0.dtd"
   xmlns="http://www.w3.org/2000/svg"
   xmlns:svg="http://www.w3.org/2000/svg">
  <defs
     id="defs1608" />
  <sodipodi:namedview
     id="namedview1606"
     pagecolor="#ffffff"
     bordercolor="#666666"
     borderopacity="1.0"
     inkscape:showpageshadow="2"
     inkscape:pageopacity="0.0"
     inkscape:pagecheckerboard="0"
     inkscape:deskcolor="#d1d1d1"
     showgrid="false"
     inkscape:zoom="4.9166667"
     inkscape:cx="14.745763"
     inkscape:cy="24.101695"
     inkscape:window-width="1920"
     inkscape:window-height="1019"
     inkscape:window-x="0"
     inkscape:window-y="0"
     inkscape:window-maximized="1"
     inkscape:current-layer="svg1604" />
  <g
     id="g7591">
    <path
       d="m 2.381,1.587 c 0,0 -0.264,0 -0.264,0.265 V 2.117 H 1.323 c 0,0 -0.265,-0.002 -0.265,0.262 v 4.09 c 0,0.226 0.182,0.408 0.407,0.408 h 9.77 A 0.406,0.406 0 0 0 11.642,6.47 V 2.381 c 0,-0.264 -0.265,-0.264 -0.265,-0.264 H 5.821 V 1.852 C 5.821,1.587 5.556,1.587 5.556,1.587 Z"
       fill="#ffffff"
       fill-opacity="0.976"
       stroke="#000000"
       stroke-opacity="0.267"
       stroke-width="0.529"
       paint-order="markers stroke fill"
       id="path1590" />
    <path
       d="m 2.381,1.587 c 0,0 -0.264,0 -0.264,0.265 V 2.117 H 1.323 c 0,0 -0.265,-0.002 -0.265,0.262 v 4.09 c 0,0.226 0.182,0.408 0.407,0.408 h 9.77 A 0.406,0.406 0 0 0 11.642,6.47 V 2.381 c 0,-0.264 -0.265,-0.264 -0.265,-0.264 H 5.821 V 1.852 C 5.821,1.587 5.556,1.587 5.556,1.587 Z"
       fill="#ffffff"
       fill-opacity="0.976"
       paint-order="markers stroke fill"
       id="path1592" />
    <path
       d="M 6.35,2.908 C 6.125,2.908 6.058,3.12 5.944,3.314 L 5.708,3.702 H 0.529 c -0.264,0 -0.264,0.265 -0.264,0.265 v 6.88 c 0,0.265 0.264,0.265 0.264,0.265 h 11.642 c 0.264,0 0.264,-0.264 0.264,-0.264 V 3.175 C 12.435,2.91 12.171,2.91 12.171,2.91 Z"
       fill="#fb8441"
       stroke="#762c02"
       stroke-opacity="0.561"
       stroke-width="0.529"
       paint-order="markers stroke fill"
       id="path1594" />
    <path
       d="M 6.35,2.908 C 6.125,2.908 6.058,3.12 5.944,3.314 L 5.708,3.702 H 0.529 c -0.264,0 -0.264,0.265 -0.264,0.265 v 6.88 c 0,0.265 0.264,0.265 0.264,0.265 h 11.642 c 0.264,0 0.264,-0.264 0.264,-0.264 V 3.175 C 12.435,2.91 12.171,2.91 12.171,2.91 Z"
       fill="#fb8441"
       paint-order="markers stroke fill"
       id="path1596"
       style="fill:#f9c470;fill-opacity:1" />
    <path
       d="M5.556 5.556v1.852h1.588V5.556zm0 2.117v1.852h1.588V7.673z"
       opacity=".15"
       id="path1600" />
    <path
       d="M4.763 5.292V9.79h3.174V5.292zm.264.264h.265v.265h-.265zm.53 0h1.587v1.852H5.556zm1.851 0h.265v.265h-.265zm-2.38.53h.264v.264h-.265zm2.38 0h.265v.264h-.265zm-2.38.529h.264v.264h-.265zm2.38 0h.265v.264h-.265zm-2.38.529h.264v.264h-.265zm2.38 0h.265v.264h-.265zm-2.38.529h.264v.264h-.265zm.528 0h1.588v1.852H5.556zm1.852 0h.265v.264h-.265zm-2.38.53h.264v.264h-.265zm2.38 0h.265v.264h-.265zm-2.38.528h.264v.265h-.265zm2.38 0h.265v.265h-.265zm-2.38.53h.264v.264h-.265zm2.38 0h.265v.264h-.265z"
       opacity=".3"
       id="path1602" />
  </g>
</svg>
