<?xml version="1.0" encoding="UTF-8" standalone="no"?>
<svg
   width="48"
   height="48"
   version="1.1"
   viewBox="0 0 12.7 12.7"
   id="svg1741"
   sodipodi:docname="default-network.svg"
   inkscape:version="1.2.2 (b0a8486541, 2022-12-01)"
   xmlns:inkscape="http://www.inkscape.org/namespaces/inkscape"
   xmlns:sodipodi="http://sodipodi.sourceforge.net/DTD/sodipodi-0.dtd"
   xmlns="http://www.w3.org/2000/svg"
   xmlns:svg="http://www.w3.org/2000/svg">
  <defs
     id="defs1745" />
  <sodipodi:namedview
     id="namedview1743"
     pagecolor="#ffffff"
     bordercolor="#666666"
     borderopacity="1.0"
     inkscape:showpageshadow="2"
     inkscape:pageopacity="0.0"
     inkscape:pagecheckerboard="0"
     inkscape:deskcolor="#d1d1d1"
     showgrid="false"
     inkscape:zoom="4.9166667"
     inkscape:cx="14.745763"
     inkscape:cy="24.101695"
     inkscape:window-width="1920"
     inkscape:window-height="1019"
     inkscape:window-x="0"
     inkscape:window-y="0"
     inkscape:window-maximized="1"
     inkscape:current-layer="svg1741" />
  <g
     id="g8013">
    <path
       d="m 2.381,1.587 c 0,0 -0.264,0 -0.264,0.265 V 2.117 H 1.323 c 0,0 -0.265,-0.002 -0.265,0.262 v 4.09 c 0,0.226 0.182,0.408 0.407,0.408 h 9.77 A 0.406,0.406 0 0 0 11.642,6.47 V 2.381 c 0,-0.264 -0.265,-0.264 -0.265,-0.264 H 5.821 V 1.852 C 5.821,1.587 5.556,1.587 5.556,1.587 Z"
       fill="#ffffff"
       fill-opacity="0.976"
       stroke="#000000"
       stroke-opacity="0.267"
       stroke-width="0.529"
       paint-order="markers stroke fill"
       id="path1727" />
    <path
       d="m 2.381,1.587 c 0,0 -0.264,0 -0.264,0.265 V 2.117 H 1.323 c 0,0 -0.265,-0.002 -0.265,0.262 v 4.09 c 0,0.226 0.182,0.408 0.407,0.408 h 9.77 A 0.406,0.406 0 0 0 11.642,6.47 V 2.381 c 0,-0.264 -0.265,-0.264 -0.265,-0.264 H 5.821 V 1.852 C 5.821,1.587 5.556,1.587 5.556,1.587 Z"
       fill="#ffffff"
       fill-opacity="0.976"
       paint-order="markers stroke fill"
       id="path1729" />
    <path
       d="M 6.35,2.908 C 6.125,2.908 6.058,3.12 5.944,3.314 L 5.708,3.702 H 0.529 c -0.264,0 -0.264,0.265 -0.264,0.265 v 6.88 c 0,0.265 0.264,0.265 0.264,0.265 h 11.642 c 0.264,0 0.264,-0.264 0.264,-0.264 V 3.175 C 12.435,2.91 12.171,2.91 12.171,2.91 Z"
       fill="#fb8441"
       stroke="#762c02"
       stroke-opacity="0.561"
       stroke-width="0.529"
       paint-order="markers stroke fill"
       id="path1731" />
    <path
       d="M 6.35,2.908 C 6.125,2.908 6.058,3.12 5.944,3.314 L 5.708,3.702 H 0.529 c -0.264,0 -0.264,0.265 -0.264,0.265 v 6.88 c 0,0.265 0.264,0.265 0.264,0.265 h 11.642 c 0.264,0 0.264,-0.264 0.264,-0.264 V 3.175 C 12.435,2.91 12.171,2.91 12.171,2.91 Z"
       fill="#fb8441"
       paint-order="markers stroke fill"
       id="path1733"
       style="fill:#f9c470;fill-opacity:1" />
    <g
       opacity=".3"
       id="g1739">
      <path
         d="M6.35 8.096c-.265 0-.527.132-.635.245l.635.655.641-.65c-.108-.118-.376-.25-.641-.25zm0-1.138c-.554 0-1.05.21-1.459.53l.397.402c.272-.185.695-.363 1.046-.363.36 0 .802.182 1.078.375l.41-.42a2.386 2.386 0 0 0-1.472-.524zm0-1.137c-.856 0-1.64.312-2.249.831l.389.415c.543-.452 1.114-.677 1.86-.677s1.3.212 1.869.686l.38-.424a3.453 3.453 0 0 0-2.249-.831z"
         opacity=".9"
         overflow="visible"
         stroke-width="1.7"
         id="path1737" />
    </g>
  </g>
</svg>
