<?xml version="1.0" encoding="UTF-8" standalone="no"?>
<svg
   width="48"
   height="48"
   version="1.1"
   viewBox="0 0 12.7 12.7"
   id="svg649"
   sodipodi:docname="default-folder-open.svg"
   inkscape:version="1.2.2 (b0a8486541, 2022-12-01)"
   xmlns:inkscape="http://www.inkscape.org/namespaces/inkscape"
   xmlns:sodipodi="http://sodipodi.sourceforge.net/DTD/sodipodi-0.dtd"
   xmlns="http://www.w3.org/2000/svg"
   xmlns:svg="http://www.w3.org/2000/svg">
  <defs
     id="defs653" />
  <sodipodi:namedview
     id="namedview651"
     pagecolor="#ffffff"
     bordercolor="#666666"
     borderopacity="1.0"
     inkscape:showpageshadow="2"
     inkscape:pageopacity="0.0"
     inkscape:pagecheckerboard="0"
     inkscape:deskcolor="#d1d1d1"
     showgrid="false"
     inkscape:zoom="4.9166667"
     inkscape:cx="14.745763"
     inkscape:cy="24.101695"
     inkscape:window-width="1920"
     inkscape:window-height="1019"
     inkscape:window-x="0"
     inkscape:window-y="0"
     inkscape:window-maximized="1"
     inkscape:current-layer="svg649" />
  <path
     d="m2.524 1.587c-0.226 0-0.304 0.33-0.407 0.53h-0.794c-0.265 0-0.265 0.264-0.265 0.264v4.091c0 0.226 0.182 0.407 0.407 0.407h9.77a0.406 0.406 0 0 0 0.407-0.407v-4.09c0-0.265-0.265-0.265-0.265-0.265h-5.82c-0.12-0.192-0.182-0.53-0.408-0.53z"
     fill="#ffffff"
     stroke="#000000"
     stroke-opacity=".255"
     stroke-width=".529"
     paint-order="markers stroke fill"
     id="path641" />
  <path
     d="m2.524 1.587c-0.226 0-0.304 0.33-0.407 0.53h-0.794c-0.265 0-0.265 0.264-0.265 0.264v4.091c0 0.226 0.182 0.407 0.407 0.407h9.77a0.406 0.406 0 0 0 0.407-0.407v-4.09c0-0.265-0.265-0.265-0.265-0.265h-5.82c-0.12-0.192-0.182-0.53-0.408-0.53z"
     fill="#ffffff"
     paint-order="markers stroke fill"
     id="path643" />
  <path
     d="m6.35 4.762c-0.265 0-0.359 0.511-0.524 0.794h-5.297c-0.264 0-0.264 0.265-0.264 0.265v5.027s0 0.264 0.264 0.264h11.642s0.264 0 0.264-0.264v-5.821c0-0.265-0.264-0.265-0.264-0.265z"
     fill="#5294e2"
     stroke="#762c02"
     stroke-opacity=".561"
     stroke-width=".529"
     paint-order="markers stroke fill"
     id="path645" />
  <path
     d="m6.35 4.762c-0.265 0-0.359 0.511-0.524 0.794h-5.297c-0.264 0-0.264 0.265-0.264 0.265v5.027s0 0.264 0.264 0.264h11.642s0.264 0 0.264-0.264v-5.821c0-0.265-0.264-0.265-0.264-0.265z"
     fill="#fb8441"
     paint-order="markers stroke fill"
     id="path647"
     style="fill:#f9c470;fill-opacity:1" />
</svg>
