<?xml version="1.0" encoding="UTF-8" standalone="no"?>
<svg
   width="48"
   height="48"
   version="1.1"
   viewBox="0 0 12.7 12.7"
   id="svg2019"
   sodipodi:docname="default-fileopen.svg"
   inkscape:version="1.2.2 (b0a8486541, 2022-12-01)"
   xmlns:inkscape="http://www.inkscape.org/namespaces/inkscape"
   xmlns:sodipodi="http://sodipodi.sourceforge.net/DTD/sodipodi-0.dtd"
   xmlns="http://www.w3.org/2000/svg"
   xmlns:svg="http://www.w3.org/2000/svg">
  <defs
     id="defs2023" />
  <sodipodi:namedview
     id="namedview2021"
     pagecolor="#ffffff"
     bordercolor="#666666"
     borderopacity="1.0"
     inkscape:showpageshadow="2"
     inkscape:pageopacity="0.0"
     inkscape:pagecheckerboard="0"
     inkscape:deskcolor="#d1d1d1"
     showgrid="false"
     inkscape:zoom="4.9166667"
     inkscape:cx="14.745763"
     inkscape:cy="24.101695"
     inkscape:window-width="1920"
     inkscape:window-height="1019"
     inkscape:window-x="0"
     inkscape:window-y="0"
     inkscape:window-maximized="1"
     inkscape:current-layer="svg2019" />
  <path
     d="m2.524 2.381c-0.226 0-0.304 0.33-0.407 0.53h-1.059c-0.264 0-0.264 0.264-0.264 0.264v4.09c0 0.226 0.181 0.408 0.407 0.408h10.298a0.406 0.406 0 0 0 0.407-0.407v-4.091c0-0.265-0.264-0.265-0.264-0.265h-6.086c-0.12-0.19-0.181-0.529-0.407-0.529z"
     fill="#fb8441"
     paint-order="markers stroke fill"
     id="path1999" />
  <path
     d="m2.524 2.381c-0.226 0-0.304 0.33-0.407 0.53h-1.059c-0.264 0-0.264 0.264-0.264 0.264v4.09c0 0.226 0.181 0.408 0.407 0.408h10.298a0.406 0.406 0 0 0 0.407-0.407v-4.091c0-0.265-0.264-0.265-0.264-0.265h-6.086c-0.12-0.19-0.181-0.529-0.407-0.529z"
     fill="#000000"
     opacity=".2"
     paint-order="markers stroke fill"
     id="path2001"
     style="fill:#f9c470;fill-opacity:1" />
  <rect
     x="1.5880002"
     y="1.85"
     width="9.5249996"
     height="7.408"
     rx="0.207"
     ry="0.26499999"
     fill="#ffffff"
     stroke="#000000"
     stroke-opacity="0.267"
     stroke-width="0.529"
     paint-order="markers stroke fill"
     id="rect2003" />
  <rect
     x="1.5880002"
     y="1.85"
     width="9.5249996"
     height="7.408"
     rx="0.207"
     ry="0.26499999"
     fill="#ffffff"
     paint-order="markers stroke fill"
     id="rect2005" />
  <path
     d="m6.35 4.762c-0.265 0-0.359 0.511-0.524 0.794h-5.297c-0.264 0-0.264 0.265-0.264 0.265v5.027s0 0.264 0.264 0.264h11.642s0.264 0 0.264-0.264v-5.821c0-0.265-0.264-0.265-0.264-0.265z"
     fill="#5294e2"
     stroke="#762c02"
     stroke-opacity=".561"
     stroke-width=".529"
     paint-order="markers stroke fill"
     id="path2007" />
  <rect
     x="2.6459997"
     y="4.7600002"
     width="7.408"
     height="0.26499999"
     rx="0"
     ry="0"
     opacity="0.25"
     paint-order="markers stroke fill"
     id="rect2009" />
  <path
     d="m6.35 4.762c-0.265 0-0.359 0.511-0.524 0.794h-5.297c-0.264 0-0.264 0.265-0.264 0.265v5.027s0 0.264 0.264 0.264h11.642s0.264 0 0.264-0.264v-5.821c0-0.265-0.264-0.265-0.264-0.265z"
     fill="#fb8441"
     paint-order="markers stroke fill"
     id="path2011"
     style="fill:#f9c470;fill-opacity:1" />
  <rect
     x="2.6459997"
     y="2.3800001"
     width="7.408"
     height="0.26499999"
     rx="0"
     ry="0"
     opacity="0.25"
     paint-order="markers stroke fill"
     id="rect2013" />
  <rect
     x="2.6459997"
     y="3.1800001"
     width="7.408"
     height="0.26499999"
     rx="0"
     ry="0"
     opacity="0.25"
     paint-order="markers stroke fill"
     id="rect2015" />
  <rect
     x="2.6459997"
     y="3.97"
     width="7.408"
     height="0.26499999"
     rx="0"
     ry="0"
     opacity="0.25"
     paint-order="markers stroke fill"
     id="rect2017" />
</svg>
