<?xml version="1.0" encoding="UTF-8" standalone="no"?>
<svg
   width="48"
   height="48"
   version="1.1"
   viewBox="0 0 12.7 12.7"
   id="svg518"
   sodipodi:docname="default-folder-music.svg"
   inkscape:version="1.2.2 (b0a8486541, 2022-12-01)"
   xmlns:inkscape="http://www.inkscape.org/namespaces/inkscape"
   xmlns:sodipodi="http://sodipodi.sourceforge.net/DTD/sodipodi-0.dtd"
   xmlns="http://www.w3.org/2000/svg"
   xmlns:svg="http://www.w3.org/2000/svg">
  <defs
     id="defs522" />
  <sodipodi:namedview
     id="namedview520"
     pagecolor="#ffffff"
     bordercolor="#666666"
     borderopacity="1.0"
     inkscape:showpageshadow="2"
     inkscape:pageopacity="0.0"
     inkscape:pagecheckerboard="0"
     inkscape:deskcolor="#d1d1d1"
     showgrid="false"
     inkscape:zoom="4.9166667"
     inkscape:cx="14.745763"
     inkscape:cy="24.101695"
     inkscape:window-width="1920"
     inkscape:window-height="1019"
     inkscape:window-x="0"
     inkscape:window-y="0"
     inkscape:window-maximized="1"
     inkscape:current-layer="svg518" />
  <path
     d="m2.381 1.587s-0.264 0-0.264 0.265v0.265h-0.794s-0.265-2e-3 -0.265 0.262v4.09c0 0.226 0.182 0.408 0.407 0.408h9.77a0.406 0.406 0 0 0 0.407-0.407v-4.089c0-0.264-0.265-0.264-0.265-0.264h-5.556v-0.265c0-0.265-0.265-0.265-0.265-0.265z"
     fill="#ffffff"
     fill-opacity=".976"
     stroke="#000000"
     stroke-opacity=".267"
     stroke-width=".529"
     paint-order="markers stroke fill"
     id="path506" />
  <path
     d="m2.381 1.587s-0.264 0-0.264 0.265v0.265h-0.794s-0.265-2e-3 -0.265 0.262v4.09c0 0.226 0.182 0.408 0.407 0.408h9.77a0.406 0.406 0 0 0 0.407-0.407v-4.089c0-0.264-0.265-0.264-0.265-0.264h-5.556v-0.265c0-0.265-0.265-0.265-0.265-0.265z"
     fill="#ffffff"
     fill-opacity=".976"
     paint-order="markers stroke fill"
     id="path508" />
  <path
     d="m6.35 2.908c-0.225 0-0.292 0.212-0.406 0.406l-0.236 0.388h-5.179c-0.264 0-0.264 0.265-0.264 0.265v6.88c0 0.265 0.264 0.265 0.264 0.265h11.642c0.264 0 0.264-0.264 0.264-0.264v-7.673c0-0.265-0.264-0.265-0.264-0.265z"
     fill="#fb8441"
     stroke="#762c02"
     stroke-opacity=".561"
     stroke-width=".529"
     paint-order="markers stroke fill"
     id="path510" />
  <path
     d="m6.35 2.908c-0.225 0-0.292 0.212-0.406 0.406l-0.236 0.388h-5.179c-0.264 0-0.264 0.265-0.264 0.265v6.88c0 0.265 0.264 0.265 0.264 0.265h11.642c0.264 0 0.264-0.264 0.264-0.264v-7.673c0-0.265-0.264-0.265-0.264-0.265z"
     fill="#fb8441"
     paint-order="markers stroke fill"
     id="path512"
     style="fill:#f9c470;fill-opacity:1" />
  <path
     d="M5.556 5.556v.53h2.381v-.53zm1.852 2.646a.53.397 0 0 0-.529.397.53.397 0 0 0 .53.397.53.397 0 0 0 .529-.397.53.397 0 0 0-.53-.397zm-2.645.265a.53.397 0 0 0-.53.397.53.397 0 0 0 .53.396.53.397 0 0 0 .529-.396.53.397 0 0 0-.53-.397z"
     opacity=".15"
     id="path514" />
  <path
     d="M5.292 5.292v3.082a.88.88 0 0 0-.53-.172c-.438 0-.793.296-.793.662 0 .365.355.661.794.661.438 0 .793-.296.793-.661 0-.013-.004-.025-.004-.038h.004V6.35h2.381v1.76a.88.88 0 0 0-.529-.173c-.438 0-.793.297-.793.662 0 .365.355.661.793.661.439 0 .794-.296.794-.661 0-.01-.003-.017-.003-.026h.003V5.292h-.265zm.264.264h2.381v.53h-2.38zm1.852 2.646c.293 0 .53.178.53.397 0 .22-.237.397-.53.397-.292 0-.529-.178-.529-.397 0-.22.237-.397.53-.397zm-2.645.265c.292 0 .529.177.529.397 0 .219-.237.396-.53.396-.292 0-.529-.177-.529-.396 0-.22.237-.397.53-.397z"
     opacity=".3"
     id="path516" />
</svg>
