<?xml version="1.0" encoding="UTF-8" standalone="no"?>
<svg
   width="48"
   height="48"
   version="1.1"
   viewBox="0 0 12.7 12.7"
   id="svg248"
   sodipodi:docname="default-folder-documents.svg"
   inkscape:version="1.2.2 (b0a8486541, 2022-12-01)"
   xmlns:inkscape="http://www.inkscape.org/namespaces/inkscape"
   xmlns:sodipodi="http://sodipodi.sourceforge.net/DTD/sodipodi-0.dtd"
   xmlns="http://www.w3.org/2000/svg"
   xmlns:svg="http://www.w3.org/2000/svg">
  <defs
     id="defs252" />
  <sodipodi:namedview
     id="namedview250"
     pagecolor="#ffffff"
     bordercolor="#666666"
     borderopacity="1.0"
     inkscape:showpageshadow="2"
     inkscape:pageopacity="0.0"
     inkscape:pagecheckerboard="0"
     inkscape:deskcolor="#d1d1d1"
     showgrid="false"
     inkscape:zoom="4.9166667"
     inkscape:cx="14.745763"
     inkscape:cy="24.101695"
     inkscape:window-width="1920"
     inkscape:window-height="1019"
     inkscape:window-x="0"
     inkscape:window-y="0"
     inkscape:window-maximized="1"
     inkscape:current-layer="svg248" />
  <path
     d="m2.381 1.587s-0.264 0-0.264 0.265v0.265h-0.794s-0.265-2e-3 -0.265 0.262v4.09c0 0.226 0.182 0.408 0.407 0.408h9.77a0.406 0.406 0 0 0 0.407-0.407v-4.089c0-0.264-0.265-0.264-0.265-0.264h-5.556v-0.265c0-0.265-0.265-0.265-0.265-0.265z"
     fill="#ffffff"
     fill-opacity=".976"
     stroke="#000000"
     stroke-opacity=".267"
     stroke-width=".529"
     paint-order="markers stroke fill"
     id="path236" />
  <path
     d="m2.381 1.587s-0.264 0-0.264 0.265v0.265h-0.794s-0.265-2e-3 -0.265 0.262v4.09c0 0.226 0.182 0.408 0.407 0.408h9.77a0.406 0.406 0 0 0 0.407-0.407v-4.089c0-0.264-0.265-0.264-0.265-0.264h-5.556v-0.265c0-0.265-0.265-0.265-0.265-0.265z"
     fill="#ffffff"
     fill-opacity=".976"
     paint-order="markers stroke fill"
     id="path238" />
  <path
     d="m6.35 2.908c-0.225 0-0.292 0.212-0.406 0.406l-0.236 0.388h-5.179c-0.264 0-0.264 0.265-0.264 0.265v6.88c0 0.265 0.264 0.265 0.264 0.265h11.642c0.264 0 0.264-0.264 0.264-0.264v-7.673c0-0.265-0.264-0.265-0.264-0.265z"
     fill="#fb8441"
     stroke="#762c02"
     stroke-opacity=".561"
     stroke-width=".529"
     paint-order="markers stroke fill"
     id="path240" />
  <path
     d="m6.35 2.908c-0.225 0-0.292 0.212-0.406 0.406l-0.236 0.388h-5.179c-0.264 0-0.264 0.265-0.264 0.265v6.88c0 0.265 0.264 0.265 0.264 0.265h11.642c0.264 0 0.264-0.264 0.264-0.264v-7.673c0-0.265-0.264-0.265-0.264-0.265z"
     fill="#fb8441"
     paint-order="markers stroke fill"
     id="path242"
     style="fill:#f9c470;fill-opacity:1" />
  <path
     d="M4.498 5.292v4.233h3.704v-2.91H8.19l.013-.014-1.31-1.31-.013.014v-.013h-.264zm.265.264h1.852V6.88h1.322V9.26H4.763zm2.116.096l.962.963H6.88z"
     opacity=".3"
     id="path244" />
  <path
     d="M4.763 5.556V9.26h3.175V6.88H6.615V5.555z"
     opacity=".15"
     id="path246" />
</svg>
