<?xml version="1.0" encoding="UTF-8" standalone="no"?>
<svg
   width="48"
   height="48"
   version="1.1"
   viewBox="0 0 12.7 12.7"
   id="svg8843"
   sodipodi:docname="folder-favorites.svg"
   inkscape:version="1.2.2 (b0a8486541, 2022-12-01)"
   xmlns:inkscape="http://www.inkscape.org/namespaces/inkscape"
   xmlns:sodipodi="http://sodipodi.sourceforge.net/DTD/sodipodi-0.dtd"
   xmlns="http://www.w3.org/2000/svg"
   xmlns:svg="http://www.w3.org/2000/svg">
  <defs
     id="defs8847" />
  <sodipodi:namedview
     id="namedview8845"
     pagecolor="#ffffff"
     bordercolor="#666666"
     borderopacity="1.0"
     inkscape:showpageshadow="2"
     inkscape:pageopacity="0.0"
     inkscape:pagecheckerboard="0"
     inkscape:deskcolor="#d1d1d1"
     showgrid="false"
     inkscape:zoom="4.9166667"
     inkscape:cx="14.745763"
     inkscape:cy="24.101695"
     inkscape:window-width="1920"
     inkscape:window-height="1019"
     inkscape:window-x="0"
     inkscape:window-y="0"
     inkscape:window-maximized="1"
     inkscape:current-layer="svg8843" />
  <path
     d="m2.381 1.587s-0.264 0-0.264 0.265v0.265h-0.794s-0.265-2e-3 -0.265 0.262v4.09c0 0.226 0.182 0.408 0.407 0.408h9.77a0.406 0.406 0 0 0 0.407-0.407v-4.089c0-0.264-0.265-0.264-0.265-0.264h-5.556v-0.265c0-0.265-0.265-0.265-0.265-0.265z"
     fill="#ffffff"
     fill-opacity=".976"
     stroke="#000000"
     stroke-opacity=".267"
     stroke-width=".529"
     paint-order="markers stroke fill"
     id="path8831" />
  <path
     d="m2.381 1.587s-0.264 0-0.264 0.265v0.265h-0.794s-0.265-2e-3 -0.265 0.262v4.09c0 0.226 0.182 0.408 0.407 0.408h9.77a0.406 0.406 0 0 0 0.407-0.407v-4.089c0-0.264-0.265-0.264-0.265-0.264h-5.556v-0.265c0-0.265-0.265-0.265-0.265-0.265z"
     fill="#ffffff"
     fill-opacity=".976"
     paint-order="markers stroke fill"
     id="path8833" />
  <path
     d="m6.35 2.908c-0.225 0-0.292 0.212-0.406 0.406l-0.236 0.388h-5.179c-0.264 0-0.264 0.265-0.264 0.265v6.88c0 0.265 0.264 0.265 0.264 0.265h11.642c0.264 0 0.264-0.264 0.264-0.264v-7.673c0-0.265-0.264-0.265-0.264-0.265z"
     fill="#fb8441"
     stroke="#762c02"
     stroke-opacity=".561"
     stroke-width=".529"
     paint-order="markers stroke fill"
     id="path8835" />
  <path
     d="m6.35 2.908c-0.225 0-0.292 0.212-0.406 0.406l-0.236 0.388h-5.179c-0.264 0-0.264 0.265-0.264 0.265v6.88c0 0.265 0.264 0.265 0.264 0.265h11.642c0.264 0 0.264-0.264 0.264-0.264v-7.673c0-0.265-0.264-0.265-0.264-0.265z"
     fill="#fb8441"
     paint-order="markers stroke fill"
     id="path8837"
     style="fill:#f9c470;fill-opacity:1" />
  <path
     d="M7.726 9.525l-1.376-.91-1.375.91.44-1.59-1.314-.924h1.588l.661-1.72.661 1.72H8.6l-1.314.924z"
     fill="none"
     opacity=".3"
     stroke="#000"
     stroke-linecap="round"
     stroke-linejoin="round"
     stroke-width=".26455"
     id="path8839" />
  <path
     d="M6.35 5.66l-.537 1.4a.132.132 0 0 1-.124.084H4.52l.973.684a.132.132 0 0 1 .051.144L5.198 9.22l1.08-.715a.132.132 0 0 1 .146 0l1.08.715-.346-1.249a.132.132 0 0 1 .051-.144l.972-.683H7.012a.132.132 0 0 1-.124-.084z"
     opacity=".15"
     id="path8841" />
</svg>
