<?xml version="1.0" encoding="UTF-8" standalone="no"?>
<svg
   width="48"
   height="48"
   version="1.1"
   id="svg233"
   sodipodi:docname="user-trash-full.svg"
   xml:space="preserve"
   inkscape:version="1.2.2 (b0a8486541, 2022-12-01)"
   xmlns:inkscape="http://www.inkscape.org/namespaces/inkscape"
   xmlns:sodipodi="http://sodipodi.sourceforge.net/DTD/sodipodi-0.dtd"
   xmlns="http://www.w3.org/2000/svg"
   xmlns:svg="http://www.w3.org/2000/svg"><sodipodi:namedview
     id="namedview235"
     pagecolor="#ffffff"
     bordercolor="#666666"
     borderopacity="1.0"
     inkscape:showpageshadow="2"
     inkscape:pageopacity="0.0"
     inkscape:pagecheckerboard="0"
     inkscape:deskcolor="#d1d1d1"
     showgrid="false"
     inkscape:zoom="3.4766083"
     inkscape:cx="20.566021"
     inkscape:cy="26.894027"
     inkscape:window-width="1920"
     inkscape:window-height="1019"
     inkscape:window-x="0"
     inkscape:window-y="0"
     inkscape:window-maximized="1"
     inkscape:current-layer="svg233" /><defs
     id="defs201"><linearGradient
       id="f"><stop
         offset="0"
         stop-color="#f2c66f"
         id="stop171" /><stop
         offset="1"
         stop-color="#fbd68f"
         id="stop173" /></linearGradient><linearGradient
       id="e"><stop
         offset="0"
         id="stop176" /><stop
         offset="1"
         stop-opacity="0"
         id="stop178" /></linearGradient><linearGradient
       id="d"><stop
         offset="0"
         stop-color="#f8f4e1"
         id="stop181" /><stop
         offset="1"
         stop-color="#ad9e57"
         id="stop183" /></linearGradient><linearGradient
       id="c"><stop
         offset="0"
         stop-color="#49b7ef"
         id="stop186" /><stop
         offset="1"
         stop-color="#1d8de2"
         id="stop188" /></linearGradient><linearGradient
       id="b"><stop
         offset="0"
         stop-color="#fdfeff"
         id="stop191" /><stop
         offset="1"
         stop-color="#dfe4e4"
         id="stop193" /></linearGradient><linearGradient
       id="a"><stop
         offset="0"
         id="stop196" /><stop
         offset="1"
         stop-opacity=".294"
         id="stop198" /></linearGradient></defs><path
     fill="none"
     d="M0 0h48v48H0z"
     id="path203" /><path
     d="M9 4.5h30c.831 0 1.219.721 1.5 1.506l1.35 3.764c.281.785-.669 1.506-1.5 1.506H7.65c-.831 0-1.781-.721-1.5-1.506L7.5 6.006c.281-.785.669-1.505 1.5-1.505z"
     fill="#1e84d6"
     stroke="#072135"
     stroke-opacity=".784"
     id="path205"
     style="fill:#bbbbbb;fill-opacity:1" /><path
     d="M39 5l-4.725 32.186c-.118.803-.669 1.463-1.5 1.463h-17.55c-.831 0-1.382-.66-1.5-1.463L9 5.001z"
     opacity=".3"
     id="path207" /><path
     d="M40.243 6.034L23.394 4.391l-2.081 21.143L38.16 27.18l2.082-21.145z"
     fill="#fafafa"
     id="path209" /><path
     d="M6.5.5l35 .003v44.003h-35V.5z"
     fill="none"
     stroke="#4f6698"
     stroke-width="2.03"
     stroke-linejoin="round"
     stroke-opacity=".267"
     transform="matrix(-.49174 -.048 -.04813 .48887 43.661 5.934)"
     id="path211" /><path
     d="M7.996 5.91c3.864-.35 16.86-1.52 16.86-1.52l1.926 21.158-16.86 1.52L7.995 5.91z"
     fill="#fafafa"
     id="path213" /><path
     d="M6.5.5l35 .003v44.003h-35V.5z"
     fill="none"
     stroke="#4f6698"
     stroke-width="2.03"
     stroke-linejoin="round"
     stroke-opacity=".267"
     transform="matrix(.49208 -.04439 .0445 .48921 4.579 5.784)"
     id="path215" /><g
     id="g221"><path
       d="M13.214 8.059l16.131-5.117 6.478 20.242-16.13 5.118-6.479-20.243z"
       fill="#fafafa"
       id="path217" /><path
       d="M6.5.5l35 .003v44.003h-35V.5z"
       fill="none"
       stroke="#4f6698"
       stroke-width="2.03"
       stroke-linejoin="round"
       stroke-opacity=".267"
       transform="matrix(.47077 -.14937 .14977 .46803 9.85 8.672)"
       id="path219" /></g><g
     id="g227"><path
       d="M24.031 2.95l15.692 6.325-8.004 19.693-15.693-6.325L24.03 2.949z"
       fill="#fafafa"
       id="path223" /><path
       d="M6.5.5l35 .003v44.003h-35V.5z"
       fill="none"
       stroke="#4f6698"
       stroke-width="2.03"
       stroke-linejoin="round"
       stroke-opacity=".267"
       transform="matrix(.458 .18459 -.1851 .45533 21.05 1.281)"
       id="path225" /></g><path
     d="M41.85 10.5l-3.225 32.522c-.08.816-.669 1.479-1.5 1.479h-26.25c-.831 0-1.42-.663-1.5-1.479L6.15 10.501z"
     fill="#1e84d6"
     stroke="#072135"
     stroke-opacity=".784"
     id="path229"
     style="fill:#6a6a6a;fill-opacity:1" /><path
     d="M17.859 32.231c-.192.345-.345.864-.345 1.19 0 .076 0 .173.019.307l-2.399-4.126a1.07 1.07 0 0 1-.134-.499c0-.173.057-.384.134-.518l1.152-2.015L15 25.842l4.183-.078 2.034 3.665-1.304-.748zM19.7 20.153c.365-.634.96-.98 1.689-.98.787 0 1.401.366 1.842 1.113l.653 1.094-2.265 4.366-3.665-2.58zm.268 15.398a2.006 2.006 0 0 1-1.995-1.996c0-.307.135-.825.327-1.151l.613-1.094h4.548v4.24H19.97zm3.647-15.514c-.287-.498-.671-.844-1.132-1.036h4.72c.422 0 .748.173.941.5l1.17 1.995 1.267-.75-2.035 3.648-4.163-.06 1.285-.728zM30.89 31.35c.575 0 1.056-.154 1.458-.46l-2.38 4.144a1.036 1.036 0 0 1-.94.518h-2.245v1.477l-2.15-3.588 2.15-3.589v1.497h4.107zm1.841-3.455c.174.307.27.633.27.979 0 .69-.442 1.42-1.055 1.765a2.142 2.142 0 0 1-1.094.25h-1.268l-2.263-3.915 3.665-2.092z"
     fill="#fff"
     id="path231" /></svg>
