<?xml version="1.0" encoding="UTF-8" standalone="no"?>
<svg
   width="64"
   height="64"
   viewBox="0 0 16.933 16.933"
   version="1.1"
   id="svg392"
   sodipodi:docname="filemanager-actions.svg"
   xml:space="preserve"
   inkscape:version="1.2.2 (b0a8486541, 2022-12-01)"
   xmlns:inkscape="http://www.inkscape.org/namespaces/inkscape"
   xmlns:sodipodi="http://sodipodi.sourceforge.net/DTD/sodipodi-0.dtd"
   xmlns="http://www.w3.org/2000/svg"
   xmlns:svg="http://www.w3.org/2000/svg"><defs
     id="defs396" /><sodipodi:namedview
     id="namedview394"
     pagecolor="#ffffff"
     bordercolor="#666666"
     borderopacity="1.0"
     inkscape:showpageshadow="2"
     inkscape:pageopacity="0.0"
     inkscape:pagecheckerboard="0"
     inkscape:deskcolor="#d1d1d1"
     showgrid="false"
     inkscape:zoom="3.6875"
     inkscape:cx="61.966102"
     inkscape:cy="41.355932"
     inkscape:window-width="1920"
     inkscape:window-height="1019"
     inkscape:window-x="0"
     inkscape:window-y="0"
     inkscape:window-maximized="1"
     inkscape:current-layer="svg392" /><path
     fill="#ffffff"
     fill-opacity="0.976"
     stroke="#000000"
     stroke-opacity="0.268"
     stroke-width="0.529"
     d="M 3.175,2.38 C 2.882,2.38 2.91,2.644 2.91,2.91 H 1.852 c -0.265,0 -0.265,0 -0.265,0.264 V 8.73 c 0,0.293 0.237,0.53 0.53,0.53 h 12.7 A 0.53,0.53 0 0 0 15.346,8.73 V 3.174 c 0,-0.265 0,-0.265 -0.265,-0.265 H 7.673 c 0,-0.265 0.028,-0.53 -0.265,-0.53 z"
     style="paint-order:markers stroke fill"
     id="path382" /><path
     fill="#ffffff"
     fill-opacity="0.976"
     d="M 3.175,2.38 C 2.882,2.38 2.91,2.644 2.91,2.91 H 1.852 c -0.265,0 -0.265,0 -0.265,0.264 V 8.73 c 0,0.293 0.237,0.53 0.53,0.53 h 12.7 A 0.53,0.53 0 0 0 15.346,8.73 V 3.174 c 0,-0.265 0,-0.265 -0.265,-0.265 H 7.673 c 0,-0.265 0.028,-0.53 -0.265,-0.53 z"
     style="paint-order:markers stroke fill"
     id="path384" /><path
     fill="none"
     stroke="#003779"
     stroke-opacity=".561"
     stroke-width="0.529"
     d="m 8.467,4.23 c -0.293,0 -0.382,0.276 -0.53,0.53 L 7.629,5.288 H 0.794 c -0.265,0 -0.265,0.265 -0.265,0.265 v 8.996 c 0,0.264 0.265,0.264 0.265,0.264 H 16.14 c 0.264,0 0.264,-0.264 0.264,-0.264 V 4.495 C 16.404,4.23 16.14,4.23 16.14,4.23 Z"
     style="stroke:#762c02;stroke-opacity:0.560784;paint-order:markers stroke fill"
     id="path386" /><path
     fill="#6ba4e7"
     d="m 8.4669985,4.23 c -0.292999,0 -0.382,0.276 -0.53,0.53 l -0.308,0.528 H 0.794 c -0.265,0 -0.265,0.265 -0.265,0.265 v 8.996 c 0,0.264 0.265,0.264 0.265,0.264 h 15.345998 c 0.264,0 0.264,-0.264 0.264,-0.264 V 4.495 c 0,-0.265 -0.264,-0.265 -0.264,-0.265 z"
     style="fill:#f9c470;fill-opacity:1;paint-order:markers stroke fill"
     id="path388" /><path
     d="M 8.16,7.673 V 8.394 A 1.7,1.7 0 0 0 7.51,8.664 L 7,8.153 6.566,8.588 7.076,9.097 a 1.7,1.7 0 0 0 -0.27,0.65 h -0.72 v 0.614 h 0.72 a 1.7,1.7 0 0 0 0.269,0.65 L 6.566,11.519 7,11.955 7.51,11.445 a 1.7,1.7 0 0 0 0.65,0.27 v 0.72 h 0.614 v -0.72 a 1.7,1.7 0 0 0 0.65,-0.269 l 0.509,0.509 0.435,-0.436 -0.51,-0.508 a 1.7,1.7 0 0 0 0.27,-0.65 h 0.72 V 9.746 h -0.72 A 1.7,1.7 0 0 0 9.858,9.096 L 10.368,8.588 9.933,8.154 9.425,8.663 A 1.7,1.7 0 0 0 8.774,8.393 V 7.672 Z m 0.307,1.46 A 0.92,0.92 0 0 1 9.388,10.055 0.92,0.92 0 0 1 8.466,10.976 0.92,0.92 0 0 1 7.544,10.054 0.92,0.92 0 0 1 8.467,9.133"
     opacity="0.15"
     style="paint-order:stroke markers fill;opacity:0.3"
     id="path390" /></svg>
