<?xml version="1.0" encoding="UTF-8" standalone="no"?>
<svg
   width="64"
   height="64"
   version="1.1"
   viewBox="0 0 16.933 16.933"
   id="svg3754"
   sodipodi:docname="mpd_.svg"
   inkscape:version="1.2.2 (b0a8486541, 2022-12-01)"
   xmlns:inkscape="http://www.inkscape.org/namespaces/inkscape"
   xmlns:sodipodi="http://sodipodi.sourceforge.net/DTD/sodipodi-0.dtd"
   xmlns="http://www.w3.org/2000/svg"
   xmlns:svg="http://www.w3.org/2000/svg">
  <defs
     id="defs3758" />
  <sodipodi:namedview
     id="namedview3756"
     pagecolor="#ffffff"
     bordercolor="#666666"
     borderopacity="1.0"
     inkscape:showpageshadow="2"
     inkscape:pageopacity="0.0"
     inkscape:pagecheckerboard="0"
     inkscape:deskcolor="#d1d1d1"
     showgrid="false"
     inkscape:zoom="5.2149125"
     inkscape:cx="43.529014"
     inkscape:cy="37.680402"
     inkscape:window-width="1920"
     inkscape:window-height="1019"
     inkscape:window-x="0"
     inkscape:window-y="0"
     inkscape:window-maximized="1"
     inkscape:current-layer="svg3754" />
  <rect
     x="-16.403999"
     y="-14.552"
     width="15.875"
     height="12.171"
     ry="0.26499999"
     fill="none"
     stroke="#321870"
     stroke-opacity="0.78431"
     stroke-width="0.529"
     style="paint-order:markers stroke fill;stroke:#000000;stroke-opacity:0.26666668"
     id="rect3726"
     transform="scale(-1)" />
  <rect
     x="-16.403999"
     y="-14.552"
     width="15.875"
     height="12.171"
     ry="0.26499999"
     fill="#9677e2"
     style="paint-order:markers stroke fill;fill:#f9f9f9;fill-opacity:1;font-variation-settings:normal;opacity:1;vector-effect:none;stroke-width:0.26457812;stroke-linecap:butt;stroke-linejoin:miter;stroke-miterlimit:4;stroke-dasharray:none;stroke-dashoffset:0;stroke-opacity:1;-inkscape-stroke:none;stop-color:#000000;stop-opacity:1"
     id="rect3728"
     transform="scale(-1)" />
  <path
     d="m 16.139,14.552 a 0.264,0.264 0 0 0 0.265,-0.265 V 13.494 H 0.529 v 0.793 a 0.264,0.264 0 0 0 0.264,0.265 z"
     opacity="0.35"
     style="paint-order:stroke markers fill"
     id="path3730" />
  <rect
     x="-15.346"
     y="-14.288"
     width="1.058"
     height="0.52899998"
     ry="0.26499999"
     opacity="0.35"
     style="paint-order:stroke markers fill"
     id="rect3732"
     transform="scale(-1)" />
  <rect
     x="-1.8519996"
     y="-14.288"
     width="0.52899998"
     height="0.52899998"
     ry="0.26499999"
     fill="#ffffff"
     opacity="0.8"
     style="paint-order:stroke markers fill"
     id="rect3736"
     transform="scale(-1)" />
  <rect
     x="-2.9100003"
     y="-14.288"
     width="0.79400003"
     height="0.52899998"
     ry="0.26499999"
     opacity="0.35"
     style="paint-order:stroke markers fill"
     id="rect3738"
     transform="scale(-1)" />
  <g
     transform="matrix(0.26457812,0,0,0.26457812,1.0522272,0.52439383)"
     id="g343">
    <ellipse
       cx="51.929001"
       cy="43.780998"
       fill="#666666"
       rx="12"
       ry="12.001"
       transform="matrix(0.9964106,0.08465176,-0.0849474,0.99638548,0,0)"
       id="ellipse331" />
    <rect
       width="5"
       height="4"
       x="40.022999"
       y="46.019001"
       fill="#ffffff"
       fill-rule="evenodd"
       ry="1"
       id="rect333" />
    <path
       fill="#ffffff"
       d="m 46.023,43.019 -3,3 v 4 l 3,3 z"
       id="path335" />
    <path
       fill="#ffffff"
       fill-rule="evenodd"
       d="m 53.162,41.447 c -0.545,-0.428 -1.139,0.224 -0.684,0.732 a 8,8 0 0 1 2.545,5.84 8,8 0 0 1 -2.554,5.852 c -0.446,0.471 0.18,1.148 0.677,0.728 a 9,9 0 0 0 2.877,-6.58 9,9 0 0 0 -2.861,-6.572"
       id="path337" />
    <path
       fill="#ffffff"
       fill-rule="evenodd"
       d="m 50.798,42.908 c -0.587,-0.535 -1.199,0.225 -0.684,0.732 a 6,6 0 0 1 1.909,4.379 6,6 0 0 1 -1.916,4.389 c -0.469,0.446 0.173,1.146 0.68,0.728 a 7,7 0 0 0 2.236,-5.117 7,7 0 0 0 -2.225,-5.111"
       id="path339" />
    <path
       fill="#ffffff"
       fill-rule="evenodd"
       d="m 48.433,44.369 c -0.52,-0.494 -1.155,0.22 -0.683,0.73 a 4,4 0 0 1 1.273,2.92 4,4 0 0 1 -1.277,2.926 c -0.473,0.43 0.14,1.152 0.68,0.73 a 5,5 0 0 0 1.597,-3.656 5,5 0 0 0 -1.59,-3.65"
       id="path341" />
  </g>
</svg>
