<?xml version="1.0" encoding="UTF-8" standalone="no"?>
<svg
   width="64"
   height="64"
   viewBox="0 0 16.933 16.933"
   version="1.1"
   id="svg12"
   sodipodi:docname="org.xfce.panel.directorymenu.svg"
   inkscape:version="1.2.2 (b0a8486541, 2022-12-01)"
   xmlns:inkscape="http://www.inkscape.org/namespaces/inkscape"
   xmlns:sodipodi="http://sodipodi.sourceforge.net/DTD/sodipodi-0.dtd"
   xmlns="http://www.w3.org/2000/svg"
   xmlns:svg="http://www.w3.org/2000/svg">
  <defs
     id="defs16" />
  <sodipodi:namedview
     id="namedview14"
     pagecolor="#ffffff"
     bordercolor="#666666"
     borderopacity="1.0"
     inkscape:showpageshadow="2"
     inkscape:pageopacity="0.0"
     inkscape:pagecheckerboard="0"
     inkscape:deskcolor="#d1d1d1"
     showgrid="false"
     inkscape:zoom="3.6875"
     inkscape:cx="-2.8474576"
     inkscape:cy="55.457627"
     inkscape:window-width="1920"
     inkscape:window-height="1019"
     inkscape:window-x="0"
     inkscape:window-y="0"
     inkscape:window-maximized="1"
     inkscape:current-layer="svg12" />
  <path
     fill="#fff"
     fill-opacity=".976"
     stroke="#000"
     stroke-opacity=".268"
     stroke-width=".529"
     d="M3.175 282.45c-.293 0-.265.264-.265.53H1.852c-.265 0-.265 0-.265.264v5.556c0 .293.237.53.53.53h12.7a.53.53 0 0 0 .529-.53v-5.556c0-.265 0-.265-.265-.265H7.673c0-.265.028-.53-.265-.53z"
     style="paint-order:markers stroke fill"
     transform="translate(0 -280.07)"
     id="path2" />
  <path
     fill="#fff"
     fill-opacity=".976"
     d="M3.175 282.45c-.293 0-.265.264-.265.53H1.852c-.265 0-.265 0-.265.264v5.556c0 .293.237.53.53.53h12.7a.53.53 0 0 0 .529-.53v-5.556c0-.265 0-.265-.265-.265H7.673c0-.265.028-.53-.265-.53z"
     style="paint-order:markers stroke fill"
     transform="translate(0 -280.07)"
     id="path4" />
  <path
     fill="none"
     stroke="#003779"
     stroke-opacity=".561"
     stroke-width=".529"
     d="M8.467 284.3c-.293 0-.382.276-.53.53l-.308.528H.794c-.265 0-.265.265-.265.265v8.996c0 .264.265.264.265.264H16.14c.264 0 .264-.264.264-.264v-10.054c0-.265-.264-.265-.264-.265z"
     style="paint-order:markers stroke fill;stroke:#b28871;stroke-opacity:1"
     id="path6"
     transform="translate(0 -280.07)" />
  <path
     fill="#6ba4e7"
     d="M8.467 284.3c-.293 0-.382.276-.53.53l-.308.528H.794c-.265 0-.265.265-.265.265v8.996c0 .264.265.264.265.264H16.14c.264 0 .264-.264.264-.264v-10.054c0-.265-.264-.265-.264-.265z"
     style="paint-order:markers stroke fill;fill:#f9c470;fill-opacity:1"
     id="path8"
     transform="translate(0 -280.07)" />
  <path
     d="M21 23.004c-1.108 0-2 .892-2 2v3.002h26v-3.002c0-1.108-.892-2-2-2zM22.002 25a1 1 0 0 1 1 1.002 1 1 0 0 1-1 1.002A1 1 0 0 1 21 26.002 1 1 0 0 1 22.002 25M19 29.002v5.002h26v-5.002zm3.002 2a1 1 0 0 1 1 1.002 1 1 0 0 1-1 1.002A1 1 0 0 1 21 32.004a1 1 0 0 1 1.002-1.002M19 35.004v5.002h26v-5.002zM22.002 37a1 1 0 0 1 1 1.002 1 1 0 0 1-1 1.002A1 1 0 0 1 21 38.002 1 1 0 0 1 22.002 37M19 41.002v5.002h26v-5.002zm3.002 2a1 1 0 0 1 1 1.002 1 1 0 0 1-1 1.002A1 1 0 0 1 21 44.004a1 1 0 0 1 1.002-1.002M19 47.006v4.002c0 1.108.892 2 2 2h22c1.108 0 2-.892 2-2v-4.002zM22.002 49a1 1 0 0 1 1 1.002 1 1 0 0 1-1 1.002A1 1 0 0 1 21 50.002 1 1 0 0 1 22.002 49"
     opacity=".15"
     style="paint-order:markers stroke fill;opacity:0.3"
     transform="scale(.26458)"
     id="path10" />
</svg>
