<?xml version="1.0" encoding="UTF-8" standalone="no"?>
<svg
   width="64"
   height="64"
   version="1.1"
   viewBox="0 0 16.933 16.933"
   id="svg7108"
   sodipodi:docname="preferences-desktop-screensaver.svg"
   inkscape:version="1.2.2 (b0a8486541, 2022-12-01)"
   xmlns:inkscape="http://www.inkscape.org/namespaces/inkscape"
   xmlns:sodipodi="http://sodipodi.sourceforge.net/DTD/sodipodi-0.dtd"
   xmlns="http://www.w3.org/2000/svg"
   xmlns:svg="http://www.w3.org/2000/svg">
  <defs
     id="defs7112" />
  <sodipodi:namedview
     id="namedview7110"
     pagecolor="#ffffff"
     bordercolor="#666666"
     borderopacity="1.0"
     inkscape:showpageshadow="2"
     inkscape:pageopacity="0.0"
     inkscape:pagecheckerboard="0"
     inkscape:deskcolor="#d1d1d1"
     showgrid="false"
     inkscape:zoom="5.2149125"
     inkscape:cx="25.312026"
     inkscape:cy="34.228762"
     inkscape:window-width="1920"
     inkscape:window-height="1019"
     inkscape:window-x="0"
     inkscape:window-y="0"
     inkscape:window-maximized="1"
     inkscape:current-layer="svg7108" />
  <rect
     x="-16.403999"
     y="-14.552"
     width="15.875"
     height="12.171"
     ry="0.26499999"
     fill="none"
     stroke="#321870"
     stroke-opacity="0.78431"
     stroke-width="0.529"
     style="stroke:#000000;stroke-opacity:0.266667;paint-order:markers stroke fill"
     id="rect3726"
     transform="scale(-1)" />
  <rect
     x="-16.403999"
     y="-14.552"
     width="15.875"
     height="12.171"
     ry="0.26499999"
     fill="#9677e2"
     style="font-variation-settings:normal;vector-effect:none;fill:#f9f9f9;fill-opacity:1;stroke-width:0.264578;stroke-linecap:butt;stroke-linejoin:miter;stroke-miterlimit:4;stroke-dasharray:none;stroke-dashoffset:0;stroke-opacity:1;-inkscape-stroke:none;paint-order:markers stroke fill;stop-color:#000000"
     id="rect3728"
     transform="scale(-1)" />
  <path
     d="m 16.139,14.552001 a 0.264,0.264 0 0 0 0.265,-0.265 v -0.793 H 0.529 v 0.793 a 0.264,0.264 0 0 0 0.264,0.265 z"
     opacity="0.35"
     style="paint-order:stroke markers fill"
     id="path3730" />
  <rect
     x="-15.345997"
     y="-14.288"
     width="1.058"
     height="0.52899998"
     ry="0.26499999"
     opacity="0.35"
     style="paint-order:stroke markers fill"
     id="rect3732"
     transform="scale(-1)" />
  <rect
     x="-1.8520008"
     y="-14.288"
     width="0.52899998"
     height="0.52899998"
     ry="0.26499999"
     fill="#ffffff"
     opacity="0.8"
     style="paint-order:stroke markers fill"
     id="rect3736"
     transform="scale(-1)" />
  <rect
     x="-2.9100013"
     y="-14.288"
     width="0.79400003"
     height="0.52899998"
     ry="0.26499999"
     opacity="0.35"
     style="paint-order:stroke markers fill"
     id="rect3738"
     transform="scale(-1)" />
  <g
     id="g7418"
     transform="translate(-5.4959106e-7,-0.15100041)"
     style="stroke:none;stroke-opacity:1;stroke-width:0.02645781;stroke-dasharray:none;fill:#a2a2a2;fill-opacity:1">
    <path
       d="m 8.467,5.972 c -0.782,0 -1.411,0.629 -1.411,1.41 v 0.53 H 7.56 v -0.53 c 0,-0.488 0.418,-0.906 0.907,-0.906 0.488,0 0.907,0.418 0.907,0.907 v 0.529 h 0.504 v -0.53 c 0,-0.781 -0.63,-1.41 -1.411,-1.41 z"
       fill="#ffffff"
       id="path7104"
       style="stroke:none;stroke-opacity:1;stroke-width:0.02645781;stroke-dasharray:none;fill:#a2a2a2;fill-opacity:1" />
    <rect
       transform="matrix(0,-1,-1,0,0,0)"
       x="-11.112"
       y="-10.583"
       width="3.2249999"
       height="4.2329998"
       rx="0.266"
       ry="0.26899999"
       fill="#ffffff"
       id="rect7106"
       style="stroke:none;stroke-opacity:1;stroke-width:0.02645781;stroke-dasharray:none;fill:#a2a2a2;fill-opacity:1" />
  </g>
</svg>
