<?xml version="1.0" encoding="UTF-8" standalone="no"?>
<svg
   width="64"
   height="64"
   version="1.1"
   viewBox="0 0 16.933 16.933"
   id="svg6185"
   sodipodi:docname="preferences-system-hotcorners.svg"
   inkscape:version="1.2.2 (b0a8486541, 2022-12-01)"
   xmlns:inkscape="http://www.inkscape.org/namespaces/inkscape"
   xmlns:sodipodi="http://sodipodi.sourceforge.net/DTD/sodipodi-0.dtd"
   xmlns="http://www.w3.org/2000/svg"
   xmlns:svg="http://www.w3.org/2000/svg">
  <defs
     id="defs6189" />
  <sodipodi:namedview
     id="namedview6187"
     pagecolor="#ffffff"
     bordercolor="#666666"
     borderopacity="1.0"
     inkscape:showpageshadow="2"
     inkscape:pageopacity="0.0"
     inkscape:pagecheckerboard="0"
     inkscape:deskcolor="#d1d1d1"
     showgrid="false"
     inkscape:zoom="14.75"
     inkscape:cx="37.220339"
     inkscape:cy="18.20339"
     inkscape:window-width="1920"
     inkscape:window-height="1019"
     inkscape:window-x="0"
     inkscape:window-y="0"
     inkscape:window-maximized="1"
     inkscape:current-layer="svg6185" />
  <rect
     x="-16.403999"
     y="-14.552"
     width="15.875"
     height="12.171"
     ry="0.26499999"
     fill="none"
     stroke="#321870"
     stroke-opacity="0.78431"
     stroke-width="0.529"
     style="stroke:#000000;stroke-opacity:0.266667;paint-order:markers stroke fill"
     id="rect3726"
     transform="scale(-1)" />
  <rect
     x="-16.403999"
     y="-14.552"
     width="15.875"
     height="12.171"
     ry="0.26499999"
     fill="#9677e2"
     style="font-variation-settings:normal;vector-effect:none;fill:#f9f9f9;fill-opacity:1;stroke-width:0.264578;stroke-linecap:butt;stroke-linejoin:miter;stroke-miterlimit:4;stroke-dasharray:none;stroke-dashoffset:0;stroke-opacity:1;-inkscape-stroke:none;paint-order:markers stroke fill;stop-color:#000000"
     id="rect3728"
     transform="scale(-1)" />
  <path
     d="m 16.138998,14.552 a 0.264,0.264 0 0 0 0.265,-0.265 v -0.793 h -15.875 v 0.793 a 0.264,0.264 0 0 0 0.264,0.265 z"
     opacity="0.35"
     style="paint-order:stroke markers fill"
     id="path3730" />
  <rect
     x="-15.346"
     y="-14.288"
     width="1.058"
     height="0.52899998"
     ry="0.26499999"
     opacity="0.35"
     style="paint-order:stroke markers fill"
     id="rect3732"
     transform="scale(-1)" />
  <rect
     x="-1.852"
     y="-14.288"
     width="0.52899998"
     height="0.52899998"
     ry="0.26499999"
     fill="#ffffff"
     opacity="0.8"
     style="paint-order:stroke markers fill"
     id="rect3736"
     transform="scale(-1)" />
  <rect
     x="-2.9100006"
     y="-14.288"
     width="0.79400003"
     height="0.52899998"
     ry="0.26499999"
     opacity="0.35"
     style="paint-order:stroke markers fill"
     id="rect3738"
     transform="scale(-1)" />
  <g
     transform="translate(-7e-7,-281.129)"
     style="paint-order:markers stroke fill"
     id="g6366">
    <path
       d="m 0.53,283.51 v 4.498 a 4.233,4.233 0 0 0 4.232,-4.233 4.233,4.233 0 0 0 -0.01,-0.265 z"
       opacity="0.15"
       id="path6360" />
    <path
       d="m 0.53,283.51 v 3.175 a 2.91,2.91 0 0 0 2.91,-2.91 2.91,2.91 0 0 0 -0.015,-0.265 z"
       opacity="0.15"
       id="path6362" />
    <path
       d="m 0.53,283.51 v 1.852 A 1.587,1.587 0 0 0 2.117,283.775 1.587,1.587 0 0 0 2.094,283.51 H 0.529 Z"
       opacity="0.15"
       id="path6364" />
  </g>
  <g
     transform="translate(-7e-7,-281.129)"
     style="paint-order:markers stroke fill"
     id="g6374">
    <path
       d="m 16.404,283.51 v 4.498 a 4.233,4.233 0 0 1 -4.233,-4.233 4.233,4.233 0 0 1 0.01,-0.265 z"
       opacity="0.15"
       id="path6368" />
    <path
       d="m 16.404,283.51 v 3.175 a 2.91,2.91 0 0 1 -2.91,-2.91 2.91,2.91 0 0 1 0.014,-0.265 z"
       opacity="0.15"
       id="path6370" />
    <path
       d="m 16.404,283.51 v 1.852 a 1.587,1.587 0 0 1 -1.587,-1.587 1.587,1.587 0 0 1 0.022,-0.265 z"
       opacity="0.15"
       id="path6372" />
  </g>
</svg>
