<?xml version="1.0" encoding="UTF-8" standalone="no"?>
<svg
   width="64"
   height="64"
   version="1.1"
   viewBox="0 0 16.933 16.933"
   id="svg2231"
   sodipodi:docname="securefx.svg"
   inkscape:version="1.2.2 (b0a8486541, 2022-12-01)"
   xmlns:inkscape="http://www.inkscape.org/namespaces/inkscape"
   xmlns:sodipodi="http://sodipodi.sourceforge.net/DTD/sodipodi-0.dtd"
   xmlns="http://www.w3.org/2000/svg"
   xmlns:svg="http://www.w3.org/2000/svg">
  <sodipodi:namedview
     id="namedview2233"
     pagecolor="#ffffff"
     bordercolor="#666666"
     borderopacity="1.0"
     inkscape:showpageshadow="2"
     inkscape:pageopacity="0.0"
     inkscape:pagecheckerboard="0"
     inkscape:deskcolor="#d1d1d1"
     showgrid="false"
     inkscape:zoom="10.429825"
     inkscape:cx="49.761142"
     inkscape:cy="31.975608"
     inkscape:window-width="1920"
     inkscape:window-height="1019"
     inkscape:window-x="0"
     inkscape:window-y="0"
     inkscape:window-maximized="1"
     inkscape:current-layer="svg2231" />
  <defs
     id="defs2213">
    <linearGradient
       id="c-3"
       x1="-197.1"
       x2="-196.91"
       y1="217.68"
       y2="219.37"
       gradientTransform="rotate(-45 -338.07 -140.03)"
       gradientUnits="userSpaceOnUse">
      <stop
         offset="0"
         id="stop2208" />
      <stop
         stop-opacity="0"
         offset="1"
         id="stop2210" />
    </linearGradient>
    <linearGradient
       id="c"
       x1="-197.10001"
       x2="-196.91"
       y1="217.67999"
       y2="219.36"
       gradientTransform="matrix(0.70711651,-0.70711651,0.70711651,0.70711651,-24.610249,-286.79044)"
       gradientUnits="userSpaceOnUse">
      <stop
         offset="0"
         id="stop314" />
      <stop
         stop-opacity="0"
         offset="1"
         id="stop316" />
    </linearGradient>
  </defs>
  <path
     d="m3.175 2.381c-0.293 0-0.265 0.264-0.265 0.53h-1.058c-0.265 0-0.265 0-0.265 0.264v5.556c0 0.293 0.237 0.53 0.53 0.53h12.7a0.529 0.529 0 0 0 0.529-0.53v-5.556c0-0.265 0-0.265-0.265-0.265h-7.408c0-0.265 0.028-0.53-0.265-0.53z"
     fill="#ffffff"
     fill-opacity=".976"
     stroke="#000000"
     stroke-opacity=".268"
     stroke-width=".529"
     paint-order="markers stroke fill"
     id="path2215" />
  <path
     d="m3.175 2.381c-0.293 0-0.265 0.264-0.265 0.53h-1.058c-0.265 0-0.265 0-0.265 0.264v5.556c0 0.293 0.237 0.53 0.53 0.53h12.7a0.529 0.529 0 0 0 0.529-0.53v-5.556c0-0.265 0-0.265-0.265-0.265h-7.408c0-0.265 0.028-0.53-0.265-0.53z"
     fill="#ffffff"
     fill-opacity=".976"
     paint-order="markers stroke fill"
     id="path2217" />
  <path
     d="m8.467 4.233c-0.293 0-0.382 0.276-0.53 0.53l-0.308 0.528h-6.835c-0.265 0-0.265 0.265-0.265 0.265v8.996c0 0.264 0.265 0.264 0.265 0.264h15.346c0.264 0 0.264-0.264 0.264-0.264v-10.054c0-0.265-0.264-0.265-0.264-0.265z"
     fill="none"
     stroke="#762c02"
     stroke-opacity=".561"
     stroke-width=".529"
     paint-order="markers stroke fill"
     id="path2219" />
  <path
     d="m 8.4669975,4.233 c -0.293,0 -0.382001,0.276 -0.530001,0.53 L 7.6289975,5.291 H 0.793998 c -0.265,0 -0.265,0.265 -0.265,0.265 v 8.996 c 0,0.264 0.265,0.264 0.265,0.264 h 15.345998 c 0.264,0 0.264,-0.264 0.264,-0.264 V 4.498 c 0,-0.265 -0.264,-0.265 -0.264,-0.265 z"
     fill="#fb8441"
     paint-order="markers stroke fill"
     id="path2221"
     style="fill:#f9c470;fill-opacity:1" />
  <rect
     x="3.44"
     y="2.91"
     width="3.704"
     height=".529"
     rx=".265"
     ry=".265"
     fill-opacity=".267"
     paint-order="markers stroke fill"
     id="rect2223" />
  <g
     opacity=".3"
     id="g2227">
    <path
       d="M8.467 11.086c-.374 0-.745.197-.897.367l.897.982.905-.973c-.152-.179-.531-.376-.905-.376zm0-1.707c-.783 0-1.484.314-2.06.794l.56.603c.385-.277.982-.544 1.477-.544.507 0 1.133.273 1.522.563l.578-.63c-.576-.48-1.295-.786-2.077-.786zm0-1.706c-1.208 0-2.315.468-3.175 1.247l.548.622c.767-.677 1.574-1.016 2.627-1.016 1.052 0 1.835.319 2.638 1.03l.537-.636c-.86-.78-1.967-1.247-3.175-1.247z"
       opacity=".9"
       overflow="visible"
       id="path2225" />
  </g>
  <path
     d="m16.404 11.641-3.1744 3.1749h2.6458c0.29307 0 0.52864-0.23557 0.52864-0.52864z"
     fill="url(#c-3)"
     opacity=".1"
     stroke-width=".26458"
     id="path2229" />
  <ellipse
     cx="14.304952"
     cy="12.061659"
     fill="#666666"
     rx="3.1749375"
     ry="3.1752024"
     transform="matrix(0.9964106,0.08465175,-0.08494738,0.99638544,0,0)"
     id="ellipse331"
     style="stroke-width:0.264578" />
  <path
     fill="#ffffff"
     d="m 13.229499,11.2445 a 1.323,1.323 0 0 0 -1.323,1.323 h -0.22 a 0.31,0.31 0 0 0 -0.31,0.309 v 2.028 a 0.31,0.31 0 0 0 0.31,0.309 h 3.087 a 0.31,0.31 0 0 0 0.308,-0.309 v -2.028 a 0.31,0.31 0 0 0 -0.308,-0.31 h -0.221 a 1.323,1.323 0 0 0 -1.323,-1.322 m 0,0.265 a 0.926,0.926 0 0 1 0.926,0.926 1,1 0 0 1 -0.01,0.132 h -1.832 a 1,1 0 0 1 -0.01,-0.132 0.926,0.926 0 0 1 0.926,-0.926 m -0.013,1.587 h 0.013 a 0.53,0.53 0 0 1 0.53,0.53 0.53,0.53 0 0 1 -0.265,0.457 v 0.601 h -0.53 v -0.6 a 0.53,0.53 0 0 1 -0.264,-0.459 0.53,0.53 0 0 1 0.516,-0.529"
     id="path2094" />
</svg>
