<?xml version="1.0" encoding="UTF-8" standalone="no"?>
<svg
   width="64"
   height="64"
   viewBox="0 0 16.933 16.933"
   version="1.1"
   id="svg5522"
   sodipodi:docname="thunar.svg"
   inkscape:version="1.2.2 (b0a8486541, 2022-12-01)"
   xmlns:inkscape="http://www.inkscape.org/namespaces/inkscape"
   xmlns:sodipodi="http://sodipodi.sourceforge.net/DTD/sodipodi-0.dtd"
   xmlns:xlink="http://www.w3.org/1999/xlink"
   xmlns="http://www.w3.org/2000/svg"
   xmlns:svg="http://www.w3.org/2000/svg">
  <sodipodi:namedview
     id="namedview5524"
     pagecolor="#ffffff"
     bordercolor="#666666"
     borderopacity="1.0"
     inkscape:showpageshadow="2"
     inkscape:pageopacity="0.0"
     inkscape:pagecheckerboard="0"
     inkscape:deskcolor="#d1d1d1"
     showgrid="false"
     inkscape:zoom="3.6875"
     inkscape:cx="19.661017"
     inkscape:cy="32.135593"
     inkscape:window-width="1920"
     inkscape:window-height="1019"
     inkscape:window-x="0"
     inkscape:window-y="0"
     inkscape:window-maximized="1"
     inkscape:current-layer="svg5522" />
  <defs
     id="defs5506">
    <linearGradient
       id="a">
      <stop
         offset="0"
         id="stop5497" />
      <stop
         offset="1"
         stop-opacity="0"
         id="stop5499" />
    </linearGradient>
    <linearGradient
       xlink:href="#a"
       id="b"
       x1="-197.102"
       x2="-196.914"
       y1="217.681"
       y2="219.365"
       gradientUnits="userSpaceOnUse" />
    <clipPath
       id="d"
       clipPathUnits="userSpaceOnUse">
      <path
         fill="#6ba4e7"
         stroke-opacity=".561"
         stroke-width=".529"
         d="M-194.482 207.579c-.208-.208-.465-.075-.749 0l-.592.156-4.646-4.647c-.187-.187-.374 0-.374 0l-5.987 6.736c-.176.197 0 .374 0 .374l9.728 9.728c.188.187.375 0 .375 0l7.483-6.735c.187-.187 0-.374 0-.374z"
         paint-order="markers stroke fill"
         id="path5503" />
    </clipPath>
  </defs>
  <path
     fill="#ffffff"
     fill-opacity="0.976"
     stroke="#000000"
     stroke-opacity="0.268"
     stroke-width="0.529"
     d="M 3.175,2.381 C 2.882,2.381 2.91,2.645 2.91,2.911 H 1.852 c -0.265,0 -0.265,0 -0.265,0.264 v 5.556 c 0,0.293 0.237,0.53 0.53,0.53 h 12.7 a 0.53,0.53 0 0 0 0.529,-0.53 V 3.175 c 0,-0.265 0,-0.265 -0.265,-0.265 H 7.673 c 0,-0.265 0.028,-0.53 -0.265,-0.53 z"
     paint-order="markers stroke fill"
     id="path5508" />
  <path
     fill="#ffffff"
     fill-opacity="0.976"
     d="M 3.175,2.381 C 2.882,2.381 2.91,2.645 2.91,2.911 H 1.852 c -0.265,0 -0.265,0 -0.265,0.264 v 5.556 c 0,0.293 0.237,0.53 0.53,0.53 h 12.7 a 0.53,0.53 0 0 0 0.529,-0.53 V 3.175 c 0,-0.265 0,-0.265 -0.265,-0.265 H 7.673 c 0,-0.265 0.028,-0.53 -0.265,-0.53 z"
     paint-order="markers stroke fill"
     id="path5510" />
  <path
     fill="#6ba4e7"
     stroke="#463593"
     stroke-opacity="0.784"
     stroke-width="0.529"
     d="m 8.467,4.233 c -0.293,0 -0.382,0.276 -0.53,0.53 L 7.629,5.291 h -6.57 c -0.265,0 -0.265,0.265 -0.265,0.265 l 0.529,8.996 c 0.015,0.264 0.264,0.264 0.264,0.264 h 13.759 c 0.264,0 0.264,-0.264 0.264,-0.264 L 16.14,4.498 c 0,-0.265 -0.265,-0.265 -0.265,-0.265 z"
     paint-order="markers stroke fill"
     id="path5512"
     style="fill:#f9c470;fill-opacity:1;stroke:#b28871;stroke-opacity:1" />
  <path
     fill="#8a73da"
     d="m 8.467,4.233 c -0.293,0 -0.382,0.276 -0.53,0.53 L 7.629,5.291 h -6.57 c -0.265,0 -0.265,0.265 -0.265,0.265 l 0.529,8.996 c 0.015,0.264 0.264,0.264 0.264,0.264 h 13.759 c 0.264,0 0.264,-0.264 0.264,-0.264 L 16.14,4.498 c 0,-0.265 -0.265,-0.265 -0.265,-0.265 z"
     paint-order="markers stroke fill"
     id="path5514"
     style="fill:#f9c470;fill-opacity:1" />
  <rect
     width="3.704"
     height="0.52899998"
     x="3.4400001"
     y="2.9099898"
     fill-opacity="0.267"
     paint-order="markers stroke fill"
     rx="0.26499999"
     ry="0.26499999"
     id="rect5516" />
  <rect
     width="5.2919998"
     height="4.7620001"
     x="-199.58701"
     y="217.868"
     fill="url(#b)"
     clip-path="url(#d)"
     opacity="0.1"
     paint-order="stroke markers fill"
     ry="0.132"
     transform="rotate(-45,-338.46777,-139.0755)"
     id="rect5518"
     style="fill:url(#b)" />
</svg>
