<?xml version="1.0" encoding="UTF-8" standalone="no"?>
<svg
   width="32"
   height="32"
   viewBox="0 0 8.467 8.467"
   version="1.1"
   id="svg1996"
   sodipodi:docname="default-folder-recent.svg"
   inkscape:version="1.2.2 (b0a8486541, 2022-12-01)"
   xmlns:inkscape="http://www.inkscape.org/namespaces/inkscape"
   xmlns:sodipodi="http://sodipodi.sourceforge.net/DTD/sodipodi-0.dtd"
   xmlns="http://www.w3.org/2000/svg"
   xmlns:svg="http://www.w3.org/2000/svg">
  <defs
     id="defs2000" />
  <sodipodi:namedview
     id="namedview1998"
     pagecolor="#ffffff"
     bordercolor="#666666"
     borderopacity="1.0"
     inkscape:showpageshadow="2"
     inkscape:pageopacity="0.0"
     inkscape:pagecheckerboard="0"
     inkscape:deskcolor="#d1d1d1"
     showgrid="false"
     inkscape:zoom="7.375"
     inkscape:cx="9.8305085"
     inkscape:cy="16.067797"
     inkscape:window-width="1920"
     inkscape:window-height="1019"
     inkscape:window-x="0"
     inkscape:window-y="0"
     inkscape:window-maximized="1"
     inkscape:current-layer="svg1996" />
  <g
     id="g2807">
    <path
       d="m 1.588,1.058 c -0.147,0 -0.133,0.133 -0.133,0.265 H 0.926 c -0.132,0 -0.132,0 -0.132,0.132 v 2.778 c 0,0.147 0.118,0.265 0.264,0.265 h 6.35 A 0.264,0.264 0 0 0 7.673,4.233 V 1.455 c 0,-0.132 0,-0.132 -0.133,-0.132 H 3.836 c 0,-0.132 0.015,-0.265 -0.132,-0.265 z"
       fill="#ffffff"
       fill-opacity="0.976"
       stroke="#000000"
       stroke-width="0.529"
       stroke-opacity="0.268"
       id="path1980"
       style="paint-order:markers stroke fill" />
    <path
       d="m 1.587,1.058 c -0.146,0 -0.132,0.133 -0.132,0.265 H 0.926 c -0.132,0 -0.132,0 -0.132,0.132 v 2.778 c 0,0.147 0.118,0.265 0.264,0.265 h 6.35 A 0.264,0.264 0 0 0 7.673,4.233 V 1.455 c 0,-0.132 0,-0.132 -0.132,-0.132 H 3.836 c 0,-0.132 0.015,-0.265 -0.132,-0.265 z"
       fill="#ffffff"
       fill-opacity="0.976"
       id="path1982"
       style="paint-order:markers stroke fill" />
    <path
       d="m 4.233,2.117 c -0.146,0 -0.19,0.138 -0.264,0.265 L 3.815,2.646 H 0.397 c -0.132,0 -0.132,0.132 -0.132,0.132 v 4.498 c 0,0.132 0.132,0.132 0.132,0.132 H 8.07 c 0.132,0 0.132,-0.132 0.132,-0.132 V 2.249 C 8.202,2.117 8.07,2.117 8.07,2.117 Z"
       fill="none"
       stroke="#762c02"
       stroke-width="0.529"
       stroke-opacity="0.561"
       id="path1984"
       style="paint-order:markers stroke fill" />
    <path
       d="m 4.233,2.117 c -0.146,0 -0.19,0.138 -0.264,0.264 L 3.814,2.646 H 0.397 c -0.132,0 -0.132,0.132 -0.132,0.132 v 4.498 c 0,0.132 0.132,0.132 0.132,0.132 H 8.07 c 0.132,0 0.132,-0.132 0.132,-0.132 V 2.249 C 8.202,2.117 8.07,2.117 8.07,2.117 Z"
       fill="#fb8441"
       id="path1986"
       style="paint-order:markers stroke fill;fill:#f9c470;fill-opacity:1" />
    <g
       style="marker:none"
       color="#000"
       fill="#000"
       stroke-width="5.625"
       id="g1994">
      <path
         style="marker:none"
         d="M4.233 3.414c-.735 0-1.34.508-1.406 1.248H2.47l.527.693.527-.693H3.18c.065-.54.512-.886 1.053-.886.586 0 1.061.49 1.061 1.094 0 .603-.475 1.093-1.06 1.093-.318 0-.604-.144-.798-.373l-.258.247c.259.3.636.488 1.055.488.78 0 1.412-.652 1.412-1.455 0-.804-.632-1.456-1.412-1.456z"
         overflow="visible"
         opacity=".3"
         id="path1990" />
      <path
         style="marker:none"
         d="M4.322 3.969H4.19l-.132.97.661.554v-.138L4.322 4.8z"
         overflow="visible"
         opacity=".3"
         id="path1992" />
    </g>
  </g>
</svg>
