<?xml version="1.0" encoding="UTF-8" standalone="no"?>
<svg
   width="32"
   height="32"
   viewBox="0 0 8.467 8.467"
   version="1.1"
   id="svg2201"
   sodipodi:docname="default-folder-pictures.svg"
   inkscape:version="1.2.2 (b0a8486541, 2022-12-01)"
   xmlns:inkscape="http://www.inkscape.org/namespaces/inkscape"
   xmlns:sodipodi="http://sodipodi.sourceforge.net/DTD/sodipodi-0.dtd"
   xmlns="http://www.w3.org/2000/svg"
   xmlns:svg="http://www.w3.org/2000/svg">
  <defs
     id="defs2205" />
  <sodipodi:namedview
     id="namedview2203"
     pagecolor="#ffffff"
     bordercolor="#666666"
     borderopacity="1.0"
     inkscape:showpageshadow="2"
     inkscape:pageopacity="0.0"
     inkscape:pagecheckerboard="0"
     inkscape:deskcolor="#d1d1d1"
     showgrid="false"
     inkscape:zoom="7.375"
     inkscape:cx="9.8305085"
     inkscape:cy="16.067797"
     inkscape:window-width="1920"
     inkscape:window-height="1019"
     inkscape:window-x="0"
     inkscape:window-y="0"
     inkscape:window-maximized="1"
     inkscape:current-layer="svg2201" />
  <g
     id="g3958">
    <path
       d="m 1.588,1.058 c -0.147,0 -0.133,0.133 -0.133,0.265 H 0.926 c -0.132,0 -0.132,0 -0.132,0.132 v 2.778 c 0,0.147 0.118,0.265 0.264,0.265 h 6.35 A 0.264,0.264 0 0 0 7.673,4.233 V 1.455 c 0,-0.132 0,-0.132 -0.133,-0.132 H 3.836 c 0,-0.132 0.015,-0.265 -0.132,-0.265 z"
       fill="#ffffff"
       fill-opacity="0.976"
       stroke="#000000"
       stroke-width="0.529"
       stroke-opacity="0.268"
       id="path2185"
       style="paint-order:markers stroke fill" />
    <path
       d="m 1.587,1.058 c -0.146,0 -0.132,0.133 -0.132,0.265 H 0.926 c -0.132,0 -0.132,0 -0.132,0.132 v 2.778 c 0,0.147 0.118,0.265 0.264,0.265 h 6.35 A 0.264,0.264 0 0 0 7.673,4.233 V 1.455 c 0,-0.132 0,-0.132 -0.132,-0.132 H 3.836 c 0,-0.132 0.015,-0.265 -0.132,-0.265 z"
       fill="#ffffff"
       fill-opacity="0.976"
       id="path2187"
       style="paint-order:markers stroke fill" />
    <path
       d="m 4.233,2.117 c -0.146,0 -0.19,0.138 -0.264,0.265 L 3.815,2.646 H 0.397 c -0.132,0 -0.132,0.132 -0.132,0.132 v 4.498 c 0,0.132 0.132,0.132 0.132,0.132 H 8.07 c 0.132,0 0.132,-0.132 0.132,-0.132 V 2.249 C 8.202,2.117 8.07,2.117 8.07,2.117 Z"
       fill="none"
       stroke="#762c02"
       stroke-width="0.529"
       stroke-opacity="0.561"
       id="path2189"
       style="paint-order:markers stroke fill" />
    <path
       d="m 4.233,2.117 c -0.146,0 -0.19,0.138 -0.264,0.264 L 3.814,2.646 H 0.397 c -0.132,0 -0.132,0.132 -0.132,0.132 v 4.498 c 0,0.132 0.132,0.132 0.132,0.132 H 8.07 c 0.132,0 0.132,-0.132 0.132,-0.132 V 2.249 C 8.202,2.117 8.07,2.117 8.07,2.117 Z"
       fill="#fb8441"
       id="path2191"
       style="paint-order:markers stroke fill;fill:#f9c470;fill-opacity:1" />
    <path
       d="M3.572 3.704l-.265.53h-.661v1.851H5.82V4.233h-.662l-.264-.529zm.661.794c.265 0 .53.157.53.53 0 .264-.265.545-.53.545-.264 0-.529-.273-.529-.538 0-.38.265-.537.53-.537z"
       opacity=".15"
       id="path2195" />
    <path
       d="M2.646 3.969a.264.264 0 0 0-.265.264v1.852c0 .147.118.265.265.265H5.82a.264.264 0 0 0 .264-.265V4.233a.264.264 0 0 0-.264-.264h-.53l-.264-.53H3.44l-.265.53zm0 .264h.661l.265-.529h1.323l.264.53h.662v1.851H2.646z"
       opacity=".3"
       id="path2197" />
    <path
       d="M4.233 4.233a.794.794 0 1 0 0 1.588.794.794 0 0 0 0-1.588zm0 .265a.53.53 0 1 1 0 1.058.53.53 0 0 1 0-1.058z"
       opacity=".21"
       id="path2199" />
  </g>
</svg>
