<?xml version="1.0" encoding="UTF-8" standalone="no"?>
<svg
   width="32"
   height="32"
   viewBox="0 0 8.467 8.467"
   version="1.1"
   id="svg2131"
   sodipodi:docname="default-folder-saved-search.svg"
   inkscape:version="1.2.2 (b0a8486541, 2022-12-01)"
   xmlns:inkscape="http://www.inkscape.org/namespaces/inkscape"
   xmlns:sodipodi="http://sodipodi.sourceforge.net/DTD/sodipodi-0.dtd"
   xmlns="http://www.w3.org/2000/svg"
   xmlns:svg="http://www.w3.org/2000/svg">
  <defs
     id="defs2135" />
  <sodipodi:namedview
     id="namedview2133"
     pagecolor="#ffffff"
     bordercolor="#666666"
     borderopacity="1.0"
     inkscape:showpageshadow="2"
     inkscape:pageopacity="0.0"
     inkscape:pagecheckerboard="0"
     inkscape:deskcolor="#d1d1d1"
     showgrid="false"
     inkscape:zoom="7.375"
     inkscape:cx="9.8305085"
     inkscape:cy="16.067797"
     inkscape:window-width="1920"
     inkscape:window-height="1019"
     inkscape:window-x="0"
     inkscape:window-y="0"
     inkscape:window-maximized="1"
     inkscape:current-layer="svg2131" />
  <g
     id="g3303">
    <path
       d="m 1.588,1.058 c -0.147,0 -0.133,0.133 -0.133,0.265 H 0.926 c -0.132,0 -0.132,0 -0.132,0.132 v 2.778 c 0,0.147 0.118,0.265 0.264,0.265 h 6.35 A 0.264,0.264 0 0 0 7.673,4.233 V 1.455 c 0,-0.132 0,-0.132 -0.133,-0.132 H 3.836 c 0,-0.132 0.015,-0.265 -0.132,-0.265 z"
       fill="#ffffff"
       fill-opacity="0.976"
       stroke="#000000"
       stroke-width="0.529"
       stroke-opacity="0.268"
       id="path2119"
       style="paint-order:markers stroke fill" />
    <path
       d="m 1.587,1.058 c -0.146,0 -0.132,0.133 -0.132,0.265 H 0.926 c -0.132,0 -0.132,0 -0.132,0.132 v 2.778 c 0,0.147 0.118,0.265 0.264,0.265 h 6.35 A 0.264,0.264 0 0 0 7.673,4.233 V 1.455 c 0,-0.132 0,-0.132 -0.132,-0.132 H 3.836 c 0,-0.132 0.015,-0.265 -0.132,-0.265 z"
       fill="#ffffff"
       fill-opacity="0.976"
       id="path2121"
       style="paint-order:markers stroke fill" />
    <path
       d="m 4.233,2.117 c -0.146,0 -0.19,0.138 -0.264,0.265 L 3.815,2.646 H 0.397 c -0.132,0 -0.132,0.132 -0.132,0.132 v 4.498 c 0,0.132 0.132,0.132 0.132,0.132 H 8.07 c 0.132,0 0.132,-0.132 0.132,-0.132 V 2.249 C 8.202,2.117 8.07,2.117 8.07,2.117 Z"
       fill="none"
       stroke="#762c02"
       stroke-width="0.529"
       stroke-opacity="0.561"
       id="path2123"
       style="paint-order:markers stroke fill" />
    <path
       d="m 4.233,2.117 c -0.146,0 -0.19,0.138 -0.264,0.264 L 3.814,2.646 H 0.397 c -0.132,0 -0.132,0.132 -0.132,0.132 v 4.498 c 0,0.132 0.132,0.132 0.132,0.132 H 8.07 c 0.132,0 0.132,-0.132 0.132,-0.132 V 2.249 C 8.202,2.117 8.07,2.117 8.07,2.117 Z"
       fill="#fb8441"
       id="path2125"
       style="paint-order:markers stroke fill;fill:#f9c470;fill-opacity:1" />
    <path
       d="M4.607 3.704a.946.946 0 0 0-.67.28.948.948 0 0 0-.119 1.198l-.018.012-.979.896c-.077.07-.033.234.042.308.074.075.237.12.308.042l.896-.98c.005-.004.008-.011.012-.017a.948.948 0 0 0 1.2-.119.948.948 0 0 0-.671-1.62zm0 .38a.569.569 0 0 1 .404.973.571.571 0 0 1-.807-.807.569.569 0 0 1 .403-.166z"
       opacity=".3"
       id="path2129" />
  </g>
</svg>
