<?xml version="1.0" encoding="UTF-8" standalone="no"?>
<svg
   width="32"
   height="32"
   viewBox="0 0 8.467 8.467"
   version="1.1"
   id="svg153"
   sodipodi:docname="default-folder-publicshare.svg"
   inkscape:version="1.2.2 (b0a8486541, 2022-12-01)"
   xmlns:inkscape="http://www.inkscape.org/namespaces/inkscape"
   xmlns:sodipodi="http://sodipodi.sourceforge.net/DTD/sodipodi-0.dtd"
   xmlns="http://www.w3.org/2000/svg"
   xmlns:svg="http://www.w3.org/2000/svg">
  <defs
     id="defs157" />
  <sodipodi:namedview
     id="namedview155"
     pagecolor="#ffffff"
     bordercolor="#666666"
     borderopacity="1.0"
     inkscape:showpageshadow="2"
     inkscape:pageopacity="0.0"
     inkscape:pagecheckerboard="0"
     inkscape:deskcolor="#d1d1d1"
     showgrid="false"
     inkscape:zoom="7.375"
     inkscape:cx="9.8305085"
     inkscape:cy="16.067797"
     inkscape:window-width="1920"
     inkscape:window-height="1019"
     inkscape:window-x="0"
     inkscape:window-y="0"
     inkscape:window-maximized="1"
     inkscape:current-layer="svg153" />
  <g
     id="g1388">
    <path
       d="m 1.588,1.058 c -0.147,0 -0.133,0.133 -0.133,0.265 H 0.926 c -0.132,0 -0.132,0 -0.132,0.132 v 2.778 c 0,0.147 0.118,0.265 0.264,0.265 h 6.35 A 0.264,0.264 0 0 0 7.673,4.233 V 1.455 c 0,-0.132 0,-0.132 -0.133,-0.132 H 3.836 c 0,-0.132 0.015,-0.265 -0.132,-0.265 z"
       fill="#ffffff"
       fill-opacity="0.976"
       stroke="#000000"
       stroke-width="0.529"
       stroke-opacity="0.268"
       id="path133"
       style="paint-order:markers stroke fill" />
    <path
       d="m 1.587,1.058 c -0.146,0 -0.132,0.133 -0.132,0.265 H 0.926 c -0.132,0 -0.132,0 -0.132,0.132 v 2.778 c 0,0.147 0.118,0.265 0.264,0.265 h 6.35 A 0.264,0.264 0 0 0 7.673,4.233 V 1.455 c 0,-0.132 0,-0.132 -0.132,-0.132 H 3.836 c 0,-0.132 0.015,-0.265 -0.132,-0.265 z"
       fill="#ffffff"
       fill-opacity="0.976"
       id="path135"
       style="paint-order:markers stroke fill" />
    <path
       d="m 4.233,2.117 c -0.146,0 -0.19,0.138 -0.264,0.265 L 3.815,2.646 H 0.397 c -0.132,0 -0.132,0.132 -0.132,0.132 v 4.498 c 0,0.132 0.132,0.132 0.132,0.132 H 8.07 c 0.132,0 0.132,-0.132 0.132,-0.132 V 2.249 C 8.202,2.117 8.07,2.117 8.07,2.117 Z"
       fill="none"
       stroke="#762c02"
       stroke-width="0.529"
       stroke-opacity="0.561"
       id="path137"
       style="paint-order:markers stroke fill" />
    <path
       d="m 4.233,2.117 c -0.146,0 -0.19,0.138 -0.264,0.264 L 3.814,2.646 H 0.397 c -0.132,0 -0.132,0.132 -0.132,0.132 v 4.498 c 0,0.132 0.132,0.132 0.132,0.132 H 8.07 c 0.132,0 0.132,-0.132 0.132,-0.132 V 2.249 C 8.202,2.117 8.07,2.117 8.07,2.117 Z"
       fill="#fb8441"
       id="path139"
       style="paint-order:markers stroke fill;fill:#f9c470;fill-opacity:1" />
    <g
       transform="matrix(.26458 0 0 .26458 -11.377 2.514)"
       id="g151">
      <ellipse
         ry="1.5"
         rx="1.5"
         cy="6"
         cx="62.5"
         opacity=".15"
         id="ellipse143" />
      <ellipse
         ry="1.5"
         rx="1.5"
         cy="12"
         cx="62.5"
         opacity=".15"
         id="ellipse145" />
      <ellipse
         ry="1.5"
         rx="1.5"
         cy="9"
         cx="55.5"
         opacity=".15"
         id="ellipse147" />
      <path
         d="M62.5 3.5a2.5 2.5 0 0 0-2.451 2.988l-2.54 1.037A2.488 2.488 0 0 0 55.5 6.5a2.5 2.5 0 1 0 0 5 2.49 2.49 0 0 0 2.016-1.031l2.53 1.066A2.5 2.5 0 1 0 63 9.551l.001-1.102a2.5 2.5 0 0 0-.5-4.949zm0 1a1.5 1.5 0 1 1 0 3 1.5 1.5 0 0 1 0-3zm-2.063 2.91c.36.527.916.908 1.563 1.04v1.1a2.497 2.497 0 0 0-1.576 1.06l-2.492-1.051A2.49 2.49 0 0 0 58 9a2.49 2.49 0 0 0-.07-.566zM55.5 7.5a1.5 1.5 0 1 1 0 3 1.5 1.5 0 0 1 0-3zm7 3a1.5 1.5 0 1 1 0 3 1.5 1.5 0 0 1 0-3z"
         opacity=".3"
         id="path149" />
    </g>
  </g>
</svg>
