<?xml version="1.0" encoding="UTF-8" standalone="no"?>
<svg
   width="32"
   height="32"
   viewBox="0 0 8.467 8.467"
   version="1.1"
   id="svg2062"
   sodipodi:docname="default-folder-music.svg"
   inkscape:version="1.2.2 (b0a8486541, 2022-12-01)"
   xmlns:inkscape="http://www.inkscape.org/namespaces/inkscape"
   xmlns:sodipodi="http://sodipodi.sourceforge.net/DTD/sodipodi-0.dtd"
   xmlns="http://www.w3.org/2000/svg"
   xmlns:svg="http://www.w3.org/2000/svg">
  <defs
     id="defs2066" />
  <sodipodi:namedview
     id="namedview2064"
     pagecolor="#ffffff"
     bordercolor="#666666"
     borderopacity="1.0"
     inkscape:showpageshadow="2"
     inkscape:pageopacity="0.0"
     inkscape:pagecheckerboard="0"
     inkscape:deskcolor="#d1d1d1"
     showgrid="false"
     inkscape:zoom="7.375"
     inkscape:cx="9.8305085"
     inkscape:cy="16.067797"
     inkscape:window-width="1920"
     inkscape:window-height="1019"
     inkscape:window-x="0"
     inkscape:window-y="0"
     inkscape:window-maximized="1"
     inkscape:current-layer="svg2062" />
  <g
     id="g4885">
    <path
       d="m 1.588,1.058 c -0.147,0 -0.133,0.133 -0.133,0.265 H 0.926 c -0.132,0 -0.132,0 -0.132,0.132 v 2.778 c 0,0.147 0.118,0.265 0.264,0.265 h 6.35 A 0.264,0.264 0 0 0 7.673,4.233 V 1.455 c 0,-0.132 0,-0.132 -0.133,-0.132 H 3.836 c 0,-0.132 0.015,-0.265 -0.132,-0.265 z"
       fill="#ffffff"
       fill-opacity="0.976"
       stroke="#000000"
       stroke-width="0.529"
       stroke-opacity="0.268"
       id="path2042"
       style="paint-order:markers stroke fill" />
    <path
       d="m 1.587,1.058 c -0.146,0 -0.132,0.133 -0.132,0.265 H 0.926 c -0.132,0 -0.132,0 -0.132,0.132 v 2.778 c 0,0.147 0.118,0.265 0.264,0.265 h 6.35 A 0.264,0.264 0 0 0 7.673,4.233 V 1.455 c 0,-0.132 0,-0.132 -0.132,-0.132 H 3.836 c 0,-0.132 0.015,-0.265 -0.132,-0.265 z"
       fill="#ffffff"
       fill-opacity="0.976"
       id="path2044"
       style="paint-order:markers stroke fill" />
    <path
       d="m 4.233,2.117 c -0.146,0 -0.19,0.138 -0.264,0.265 L 3.815,2.646 H 0.397 c -0.132,0 -0.132,0.132 -0.132,0.132 v 4.498 c 0,0.132 0.132,0.132 0.132,0.132 H 8.07 c 0.132,0 0.132,-0.132 0.132,-0.132 V 2.249 C 8.202,2.117 8.07,2.117 8.07,2.117 Z"
       fill="none"
       stroke="#762c02"
       stroke-width="0.529"
       stroke-opacity="0.561"
       id="path2046"
       style="paint-order:markers stroke fill" />
    <path
       d="m 4.233,2.117 c -0.146,0 -0.19,0.138 -0.264,0.264 L 3.814,2.646 H 0.397 c -0.132,0 -0.132,0.132 -0.132,0.132 v 4.498 c 0,0.132 0.132,0.132 0.132,0.132 H 8.07 c 0.132,0 0.132,-0.132 0.132,-0.132 V 2.249 C 8.202,2.117 8.07,2.117 8.07,2.117 Z"
       fill="#fb8441"
       id="path2048"
       style="paint-order:markers stroke fill;fill:#f9c470;fill-opacity:1" />
    <g
       transform="matrix(.26458 0 0 .26458 -10.583 1.852)"
       opacity=".3"
       id="g2060">
      <ellipse
         ry="1.5"
         rx="2"
         cy="21.5"
         cx="12"
         transform="translate(40 -6)"
         id="ellipse2052" />
      <ellipse
         ry="1.5"
         rx="2"
         cy="21.5"
         cx="12"
         transform="translate(46 -7)"
         id="ellipse2054" />
      <path
         d="M53 8h1v7.5h-1zM59 7h1v7.5h-1z"
         id="path2056" />
      <path
         d="M53 7h7v2h-7z"
         id="path2058" />
    </g>
  </g>
</svg>
