<?xml version="1.0" encoding="UTF-8" standalone="no"?>
<svg
   width="32"
   height="32"
   version="1.1"
   id="svg44"
   sodipodi:docname="user-trash.svg"
   xml:space="preserve"
   inkscape:version="1.2.2 (b0a8486541, 2022-12-01)"
   xmlns:inkscape="http://www.inkscape.org/namespaces/inkscape"
   xmlns:sodipodi="http://sodipodi.sourceforge.net/DTD/sodipodi-0.dtd"
   xmlns="http://www.w3.org/2000/svg"
   xmlns:svg="http://www.w3.org/2000/svg"><sodipodi:namedview
     id="namedview46"
     pagecolor="#ffffff"
     bordercolor="#666666"
     borderopacity="1.0"
     inkscape:showpageshadow="2"
     inkscape:pageopacity="0.0"
     inkscape:pagecheckerboard="0"
     inkscape:deskcolor="#d1d1d1"
     showgrid="false"
     inkscape:zoom="7.375"
     inkscape:cx="9.8305085"
     inkscape:cy="16.067797"
     inkscape:window-width="1920"
     inkscape:window-height="1019"
     inkscape:window-x="0"
     inkscape:window-y="0"
     inkscape:window-maximized="1"
     inkscape:current-layer="svg44" /><defs
     id="defs32"><linearGradient
       id="f"><stop
         offset="0"
         stop-color="#f2c66f"
         id="stop2" /><stop
         offset="1"
         stop-color="#fbd68f"
         id="stop4" /></linearGradient><linearGradient
       id="e"><stop
         offset="0"
         id="stop7" /><stop
         offset="1"
         stop-opacity="0"
         id="stop9" /></linearGradient><linearGradient
       id="d"><stop
         offset="0"
         stop-color="#f8f4e1"
         id="stop12" /><stop
         offset="1"
         stop-color="#ad9e57"
         id="stop14" /></linearGradient><linearGradient
       id="c"><stop
         offset="0"
         stop-color="#49b7ef"
         id="stop17" /><stop
         offset="1"
         stop-color="#1d8de2"
         id="stop19" /></linearGradient><linearGradient
       id="b"><stop
         offset="0"
         stop-color="#fdfeff"
         id="stop22" /><stop
         offset="1"
         stop-color="#dfe4e4"
         id="stop24" /></linearGradient><linearGradient
       id="a"><stop
         offset="0"
         id="stop27" /><stop
         offset="1"
         stop-opacity=".294"
         id="stop29" /></linearGradient></defs><path
     fill="none"
     d="M0 0h32v32H0z"
     id="path34" /><path
     d="M6 2.5h20c.554 0 .83.529 1 1.115l.9 3.087c.17.586-.446 1.114-1 1.114H5.1c-.554 0-1.17-.528-1-1.114L5 3.615c.17-.586.446-1.115 1-1.115z"
     fill="#1e84d6"
     stroke="#072135"
     stroke-opacity=".784"
     id="path36"
     style="fill:#666666;fill-opacity:1" /><path
     d="M26 3l-3.15 21.776c-.079.543-.446.99-1 .99h-11.7c-.554 0-.921-.447-1-.99L6 3z"
     opacity=".3"
     id="path38" /><path
     d="M27.9 7.5l-2.15 21.022c-.055.539-.446.978-1 .978H7.25c-.554 0-.946-.439-1-.978L4.1 7.5z"
     fill="#1e84d6"
     stroke="#072135"
     stroke-opacity=".784"
     id="path40"
     style="fill:#6a6a6a;fill-opacity:1" /><path
     d="M11.906 21.82c-.128.23-.23.576-.23.794 0 .05 0 .115.013.204l-1.6-2.75a.713.713 0 0 1-.089-.333c0-.115.038-.256.09-.345l.767-1.343L10 17.56l2.789-.052 1.356 2.443-.87-.498zm1.228-8.052a1.25 1.25 0 0 1 1.126-.653c.525 0 .934.244 1.228.742l.435.73-1.51 2.91-2.443-1.72zm.179 10.265c-.73 0-1.33-.6-1.33-1.33 0-.205.09-.55.217-.768l.41-.729h3.032v2.828h-2.33zm2.431-10.342a1.568 1.568 0 0 0-.755-.691h3.147c.282 0 .499.115.627.333l.78 1.33.845-.499-1.357 2.431-2.775-.039.857-.485zm4.849 7.541c.383 0 .703-.102.972-.307l-1.587 2.763a.69.69 0 0 1-.626.345h-1.497v.985l-1.433-2.392 1.433-2.392v.998h2.738zm1.227-2.303c.116.205.18.422.18.653 0 .46-.295.946-.704 1.176a1.428 1.428 0 0 1-.729.167h-.845l-1.509-2.61 2.444-1.395z"
     fill="#fff"
     id="path42" /></svg>
