<?xml version="1.0" encoding="UTF-8" standalone="no"?>
<svg
   width="32"
   height="32"
   version="1.1"
   id="svg233"
   sodipodi:docname="user-trash-full.svg"
   xml:space="preserve"
   inkscape:version="1.2.2 (b0a8486541, 2022-12-01)"
   xmlns:inkscape="http://www.inkscape.org/namespaces/inkscape"
   xmlns:sodipodi="http://sodipodi.sourceforge.net/DTD/sodipodi-0.dtd"
   xmlns="http://www.w3.org/2000/svg"
   xmlns:svg="http://www.w3.org/2000/svg"><sodipodi:namedview
     id="namedview235"
     pagecolor="#ffffff"
     bordercolor="#666666"
     borderopacity="1.0"
     inkscape:showpageshadow="2"
     inkscape:pageopacity="0.0"
     inkscape:pagecheckerboard="0"
     inkscape:deskcolor="#d1d1d1"
     showgrid="false"
     inkscape:zoom="5.2149125"
     inkscape:cx="-26.558451"
     inkscape:cy="16.203532"
     inkscape:window-width="1920"
     inkscape:window-height="1019"
     inkscape:window-x="0"
     inkscape:window-y="0"
     inkscape:window-maximized="1"
     inkscape:current-layer="svg233" /><defs
     id="defs201"><linearGradient
       id="f"><stop
         offset="0"
         stop-color="#f2c66f"
         id="stop171" /><stop
         offset="1"
         stop-color="#fbd68f"
         id="stop173" /></linearGradient><linearGradient
       id="e"><stop
         offset="0"
         id="stop176" /><stop
         offset="1"
         stop-opacity="0"
         id="stop178" /></linearGradient><linearGradient
       id="d"><stop
         offset="0"
         stop-color="#f8f4e1"
         id="stop181" /><stop
         offset="1"
         stop-color="#ad9e57"
         id="stop183" /></linearGradient><linearGradient
       id="c"><stop
         offset="0"
         stop-color="#49b7ef"
         id="stop186" /><stop
         offset="1"
         stop-color="#1d8de2"
         id="stop188" /></linearGradient><linearGradient
       id="b"><stop
         offset="0"
         stop-color="#fdfeff"
         id="stop191" /><stop
         offset="1"
         stop-color="#dfe4e4"
         id="stop193" /></linearGradient><linearGradient
       id="a"><stop
         offset="0"
         id="stop196" /><stop
         offset="1"
         stop-opacity=".294"
         id="stop198" /></linearGradient></defs><path
     fill="none"
     d="M0 0h32v32H0z"
     id="path203" /><path
     d="M6 2.5h20c.554 0 .83.529 1 1.115l.9 3.087c.17.586-.446 1.114-1 1.114H5.1c-.554 0-1.17-.528-1-1.114L5 3.615c.17-.586.446-1.115 1-1.115z"
     fill="#1e84d6"
     stroke="#072135"
     stroke-opacity=".784"
     id="path205"
     style="fill:#bcbcbc;fill-opacity:1" /><path
     d="M26 3l-3.15 21.776c-.079.543-.446.99-1 .99h-11.7c-.554 0-.921-.447-1-.99L6 3z"
     opacity=".3"
     id="path207" /><path
     d="M26.583 3.825L15.523 2.75l-1.366 13.83 11.06 1.076 1.366-13.83z"
     fill="#fafafa"
     id="path209" /><path
     d="M6.5.5l35 .003v44.003h-35V.5z"
     fill="none"
     stroke="#4f6698"
     stroke-width="3.097"
     stroke-linejoin="round"
     stroke-opacity=".267"
     transform="matrix(-.32279 -.0314 -.0316 .31978 28.827 3.76)"
     id="path211" /><path
     d="M5.416 3.744l11.068-.994 1.263 13.84-11.067.994-1.264-13.84z"
     fill="#fafafa"
     id="path213" /><path
     d="M6.5.5l35 .003v44.003h-35V.5z"
     fill="none"
     stroke="#4f6698"
     stroke-width="3.097"
     stroke-linejoin="round"
     stroke-opacity=".267"
     transform="matrix(.32301 -.02903 .02922 .32 3.173 3.661)"
     id="path215" /><g
     id="g221"><path
       d="M8.841 5.15c2.426-.768 10.589-3.347 10.589-3.347l4.252 13.24-10.589 3.348L8.841 5.149z"
       fill="#fafafa"
       id="path217" /><path
       d="M6.5.5l35 .003v44.003h-35V.5z"
       fill="none"
       stroke="#4f6698"
       stroke-width="3.097"
       stroke-linejoin="round"
       stroke-opacity=".267"
       transform="matrix(.30902 -.0977 .09832 .30615 6.633 5.55)"
       id="path219" /></g><g
     id="g227"><path
       d="M15.942 1.807l10.3 4.138-5.254 12.881-10.301-4.137 5.255-12.882z"
       fill="#fafafa"
       id="path223" /><path
       d="M6.5.5l35 .003v44.003h-35V.5z"
       fill="none"
       stroke="#4f6698"
       stroke-width="3.097"
       stroke-linejoin="round"
       stroke-opacity=".267"
       transform="matrix(.30064 .12074 -.1215 .29784 13.984 .716)"
       id="path225" /></g><path
     d="M27.9 7.5l-2.15 21.022c-.055.539-.446.978-1 .978H7.25c-.554 0-.946-.439-1-.978L4.1 7.5z"
     fill="#1e84d6"
     stroke="#072135"
     stroke-opacity=".784"
     id="path229"
     style="fill:#6a6a6a;fill-opacity:1" /><path
     d="M11.906 21.82c-.128.23-.23.576-.23.794 0 .05 0 .115.013.204l-1.6-2.75a.713.713 0 0 1-.089-.333c0-.115.038-.256.09-.345l.767-1.343L10 17.56l2.789-.052 1.356 2.443-.87-.498zm1.228-8.052a1.25 1.25 0 0 1 1.126-.653c.525 0 .934.244 1.228.742l.435.73-1.51 2.91-2.443-1.72zm.179 10.265c-.73 0-1.33-.6-1.33-1.33 0-.205.09-.55.217-.768l.41-.729h3.032v2.828h-2.33zm2.431-10.342a1.568 1.568 0 0 0-.755-.691h3.147c.282 0 .499.115.627.333l.78 1.33.845-.499-1.357 2.431-2.775-.039.857-.485zm4.849 7.541c.383 0 .703-.102.972-.307l-1.587 2.763a.69.69 0 0 1-.626.345h-1.497v.985l-1.433-2.392 1.433-2.392v.998h2.738zm1.227-2.303c.116.205.18.422.18.653 0 .46-.295.946-.704 1.176a1.428 1.428 0 0 1-.729.167h-.845l-1.509-2.61 2.444-1.395z"
     fill="#fff"
     id="path231" /></svg>
