<?xml version="1.0" encoding="UTF-8" standalone="no"?>
<svg
   width="22"
   height="22"
   version="1.1"
   id="svg870"
   sodipodi:docname="desktop.svg"
   inkscape:version="1.2.2 (b0a8486541, 2022-12-01)"
   xmlns:inkscape="http://www.inkscape.org/namespaces/inkscape"
   xmlns:sodipodi="http://sodipodi.sourceforge.net/DTD/sodipodi-0.dtd"
   xmlns="http://www.w3.org/2000/svg"
   xmlns:svg="http://www.w3.org/2000/svg">
  <sodipodi:namedview
     id="namedview872"
     pagecolor="#ffffff"
     bordercolor="#666666"
     borderopacity="1.0"
     inkscape:showpageshadow="2"
     inkscape:pageopacity="0.0"
     inkscape:pagecheckerboard="0"
     inkscape:deskcolor="#d1d1d1"
     showgrid="false"
     inkscape:zoom="10.727273"
     inkscape:cx="3.4025423"
     inkscape:cy="11.13983"
     inkscape:window-width="1920"
     inkscape:window-height="1019"
     inkscape:window-x="0"
     inkscape:window-y="0"
     inkscape:window-maximized="1"
     inkscape:current-layer="svg870" />
  <defs
     id="defs854">
    <style
       id="current-color-scheme"
       type="text/css">.ColorScheme-Text { color:#5d656b; } .ColorScheme-Highlight { color:#5294e2; }</style>
  </defs>
  <g
     id="g1907">
    <g
       class="ColorScheme-Text"
       fill="currentColor"
       transform="matrix(1,0,0,-1,1.9998,20.0002)"
       id="g860"
       style="fill:#f9f9f9;fill-opacity:1">
      <path
         transform="translate(1,1)"
         d="m 1,5 v 8.5 C 1,13.777 1.223,14 1.5,14 h 13 C 14.777,14 15,13.777 15,13.5 V 5 Z"
         opacity="0.1"
         id="path856"
         style="fill:#f9f9f9;fill-opacity:1" />
      <path
         transform="translate(1,1)"
         d="M 1.5,2 C 1.223,2 1,2.223 1,2.5 V 4 H 15 V 2.5 C 15,2.223 14.777,2 14.5,2 Z"
         opacity="0.25"
         id="path858"
         style="fill:#f9f9f9;fill-opacity:1" />
    </g>
    <g
       class="ColorScheme-Text"
       fill="currentColor"
       transform="matrix(1.0718,0,0,-1.0829,1.3538,20.7462)"
       id="g864">
      <path
         class="ColorScheme-Text"
         d="M 3,2.5352 C 2.19697,2.5352 1.5352,3.19701 1.5352,4 v 10 c 0,0.80303 0.66181,1.4648 1.4648,1.4648 h 12 c 0.80303,0 1.4648,-0.66181 1.4648,-1.4648 V 4 C 16.4648,3.19697 15.80299,2.5352 15,2.5352 Z m 0,0.92969 h 12 c 0.30497,0 0.53516,0.23019 0.53516,0.53516 v 10 c 0,0.30497 -0.23019,0.53516 -0.53516,0.53516 H 3 c -0.30497,0 -0.53516,-0.23019 -0.53516,-0.53516 v -10 C 2.46484,3.69508 2.69503,3.46489 3,3.46489 Z"
         fill="currentColor"
         id="path862" />
    </g>
    <path
       class="ColorScheme-Text"
       fill="currentColor"
       d="m 3.9998,15.0002 h 14 v -1 h -14 z"
       id="path866" />
  </g>
</svg>
