<?xml version="1.0" encoding="UTF-8" standalone="no"?>
<svg
   width="32"
   height="32"
   version="1.1"
   id="svg14"
   sodipodi:docname="org.xfce.thunar.svg"
   xml:space="preserve"
   inkscape:version="1.2.2 (b0a8486541, 2022-12-01)"
   xmlns:inkscape="http://www.inkscape.org/namespaces/inkscape"
   xmlns:sodipodi="http://sodipodi.sourceforge.net/DTD/sodipodi-0.dtd"
   xmlns="http://www.w3.org/2000/svg"
   xmlns:svg="http://www.w3.org/2000/svg"><defs
     id="defs18" /><sodipodi:namedview
     id="namedview16"
     pagecolor="#ffffff"
     bordercolor="#666666"
     borderopacity="1.0"
     inkscape:showpageshadow="2"
     inkscape:pageopacity="0.0"
     inkscape:pagecheckerboard="0"
     inkscape:deskcolor="#d1d1d1"
     showgrid="false"
     inkscape:zoom="10.429825"
     inkscape:cx="43.193438"
     inkscape:cy="17.977291"
     inkscape:window-width="1920"
     inkscape:window-height="1019"
     inkscape:window-x="0"
     inkscape:window-y="0"
     inkscape:window-maximized="1"
     inkscape:current-layer="svg14" /><g
     id="g2210"><path
       d="m 6.0016872,3.9986052 c -0.5555718,0 -0.5026602,0.5026602 -0.5026602,1.001541 H 3.4997244 c -0.4988808,0 -0.4988808,0 -0.4988808,0.4988808 V 15.9982 c 0,0.555572 0.4459692,1.001541 0.9977616,1.001541 H 27.997795 A 0.9977616,0.9977616 0 0 0 28.999336,15.9982 V 5.499027 c 0,-0.4988808 0,-0.4988808 -0.50266,-0.4988808 H 14.497778 c 0,-0.4988808 0.05669,-1.001541 -0.49888,-1.001541 z"
       fill="#ffffff"
       fill-opacity="0.976"
       stroke="#000000"
       stroke-opacity="0.268"
       stroke-width="1.9993"
       id="path2"
       style="paint-order:markers stroke fill" /><path
       d="m 5.9979078,3.9986052 c -0.5517924,0 -0.4988808,0.5026602 -0.4988808,1.001541 H 3.4997244 c -0.4988808,0 -0.4988808,0 -0.4988808,0.4988808 V 15.9982 c 0,0.555572 0.4459692,1.001541 0.9977616,1.001541 H 27.997795 A 0.9977616,0.9977616 0 0 0 28.999336,15.9982 V 5.499027 c 0,-0.4988808 0,-0.4988808 -0.498881,-0.4988808 H 14.497778 c 0,-0.4988808 0.05669,-1.001541 -0.49888,-1.001541 z"
       fill="#ffffff"
       fill-opacity="0.976"
       id="path4"
       style="stroke-width:3.7794;paint-order:markers stroke fill" /><path
       d="m 15.9982,8.0009898 c -0.551792,0 -0.718086,0.5215572 -0.997761,1.001541 L 14.418411,10.000292 H 1.5004218 c -0.4988808,0 -0.4988808,0.498881 -0.4988808,0.498881 v 16.999741 c 0,0.498881 0.4988808,0.498881 0.4988808,0.498881 H 30.499758 c 0.498881,0 0.498881,-0.498881 0.498881,-0.498881 V 8.4998706 c 0,-0.4988808 -0.498881,-0.4988808 -0.498881,-0.4988808 z"
       fill="none"
       stroke="#762c02"
       stroke-opacity="0.56078"
       stroke-width="1.9993"
       id="path6"
       style="paint-order:markers stroke fill" /><path
       d="m 15.9982,8.0009898 c -0.551792,0 -0.718086,0.5215572 -0.997761,0.9977616 L 14.414632,10.000292 H 1.5004218 c -0.4988808,0 -0.4988808,0.498881 -0.4988808,0.498881 v 16.999741 c 0,0.498881 0.4988808,0.498881 0.4988808,0.498881 H 30.499758 c 0.498881,0 0.498881,-0.498881 0.498881,-0.498881 V 8.4998706 c 0,-0.4988808 -0.498881,-0.4988808 -0.498881,-0.4988808 z"
       fill="#fb8441"
       id="path8"
       style="stroke-width:3.7794;paint-order:markers stroke fill;fill:#f9c470;fill-opacity:1" /><path
       d="m16.014 13-6.089 6.09 1.179 1.178 0.982-0.982v4.714h3.143v-2.357c0-0.435 0.35-0.786 0.785-0.786 0.436 0 0.786 0.35 0.786 0.786v2.357h3.143v-4.714l0.982 0.982 1.179-1.179zm2.357 0.786v0.589l1.572 1.571v-2.16z"
       color="#000000"
       fill-opacity=".235"
       overflow="visible"
       id="path12" /></g></svg>
