<?xml version="1.0" encoding="UTF-8" standalone="no"?>
<svg
   width="128"
   height="128"
   version="1.1"
   viewBox="0 0 33.866 33.866"
   id="svg3591"
   sodipodi:docname="default-user-home.svg"
   inkscape:version="1.2.2 (b0a8486541, 2022-12-01)"
   xmlns:inkscape="http://www.inkscape.org/namespaces/inkscape"
   xmlns:sodipodi="http://sodipodi.sourceforge.net/DTD/sodipodi-0.dtd"
   xmlns="http://www.w3.org/2000/svg"
   xmlns:svg="http://www.w3.org/2000/svg">
  <sodipodi:namedview
     id="namedview3593"
     pagecolor="#ffffff"
     bordercolor="#666666"
     borderopacity="1.0"
     inkscape:showpageshadow="2"
     inkscape:pageopacity="0.0"
     inkscape:pagecheckerboard="0"
     inkscape:deskcolor="#d1d1d1"
     showgrid="false"
     inkscape:zoom="1.84375"
     inkscape:cx="39.322034"
     inkscape:cy="64.271186"
     inkscape:window-width="1920"
     inkscape:window-height="1019"
     inkscape:window-x="0"
     inkscape:window-y="0"
     inkscape:window-maximized="1"
     inkscape:current-layer="svg3591" />
  <defs
     id="defs3567">
    <linearGradient
       id="c"
       x1="-197.1"
       x2="-196.91"
       y1="217.68"
       y2="219.37"
       gradientTransform="matrix(5.2589 -5.2589 5.2589 5.2589 1.0331 -2083.1)"
       gradientUnits="userSpaceOnUse">
      <stop
         offset="0"
         id="stop3562" />
      <stop
         stop-opacity="0"
         offset="1"
         id="stop3564" />
    </linearGradient>
  </defs>
  <path
     d="m7.1436 4.4978c-0.79373 0-1.0583 0.53658-1.0583 1.0583h-2.126c-0.40245 0-0.51977 0.14903-0.51977 0.51781v10.879c0 0.57469 0.46485 1.0395 1.0395 1.0395h24.91c0.57381 1e-6 1.0387-0.46574 1.0376-1.0395v-10.879c0-0.38976-0.13476-0.51977-0.51977-0.51977h-14.561c0-0.51977-0.26458-1.0564-1.0583-1.0564z"
     fill="#fff"
     fill-opacity=".976"
     stroke="#000"
     stroke-opacity=".268"
     stroke-width=".52916"
     style="paint-order:markers stroke fill"
     id="path3569" />
  <path
     d="m7.1436 4.4978c-0.79373 0-1.0583 0.53658-1.0583 1.0583h-2.126c-0.40245 0-0.51977 0.14903-0.51977 0.51781v10.879c0 0.57469 0.46485 1.0395 1.0395 1.0395h24.91c0.57381 1e-6 1.0387-0.46574 1.0376-1.0395v-10.879c0-0.38976-0.13476-0.51977-0.51977-0.51977h-14.561c0-0.51977-0.26458-1.0564-1.0583-1.0564z"
     fill="#fff"
     fill-opacity=".976"
     style="paint-order:markers stroke fill"
     id="path3571" />
  <path
     d="m16.934 8.2019c-0.57654 0-0.76808 0.55851-1.0593 1.0583l-0.58965 1.0583h-13.449c-0.52144 0-0.52144 0.52144-0.52144 0.52144v17.744c0 0.51948 0.52144 0.51948 0.52144 0.51948h30.197c0.51948 0 0.51948-0.51948 0.51948-0.51948v-19.861c0-0.52144-0.51948-0.52144-0.51948-0.52144z"
     fill="#fb8441"
     stroke="#762c02"
     stroke-opacity=".56078"
     stroke-width=".52916"
     style="paint-order:markers stroke fill;fill:#f9c470;fill-opacity:1"
     id="path3573" />
  <path
     d="m 16.933993,8.2019 c -0.57654,0 -0.76808,0.55851 -1.0593,1.0583 l -0.589649,1.0583 H 1.836046 c -0.52144,0 -0.52144,0.52144 -0.52144,0.52144 v 17.744 c 0,0.51948 0.52144,0.51948 0.52144,0.51948 h 30.196997 c 0.51948,0 0.51948,-0.51948 0.51948,-0.51948 v -19.861 c 0,-0.52144 -0.51948,-0.52144 -0.51948,-0.52144 z"
     fill="#fb8441"
     style="fill:#f9c470;fill-opacity:1;paint-order:markers stroke fill"
     id="path3575" />
  <path
     transform="scale(.26458)"
     d="m123.03 86.385-23.613 23.615h21.648c1.9634 0 1.9648-1.9629 1.9648-1.9629v-21.652z"
     fill="url(#c)"
     opacity=".1"
     stroke-width="3.7796"
     style="paint-order:stroke markers fill"
     id="path3577" />
  <rect
     x="7.6728"
     y="5.5561"
     width="6.3499"
     height="1.0583"
     rx=".52916"
     ry=".53016"
     fill-opacity=".267"
     style="paint-order:markers stroke fill"
     id="rect3579" />
  <g
     transform="matrix(.26458 0 0 .26458 0 -.26458)"
     id="g3589">
    <g
       transform="matrix(2,0,0,2,188,-45.6)"
       id="g3583">
      <path
         d="m-62 50.8-10 6h2v12h16v-12h2zm0 0.7002 7.5 4.5v12.3h-15v-12.3z"
         opacity=".3"
         stroke-width="0"
         id="path3581" />
    </g>
    <g
       transform="matrix(2 0 0 2 292 -55.6)"
       id="g3587">
      <path
         d="m-121.5 61 7.5-4.5 7.5 4.5v12.3h-15z"
         opacity=".15"
         stroke-width="0"
         id="path3585" />
    </g>
  </g>
</svg>
