<?xml version="1.0" encoding="UTF-8" standalone="no"?>
<svg
   width="128"
   height="128"
   version="1.1"
   viewBox="0 0 33.866 33.866"
   id="svg193"
   sodipodi:docname="user-trash-full.svg"
   xml:space="preserve"
   inkscape:version="1.2.2 (b0a8486541, 2022-12-01)"
   xmlns:inkscape="http://www.inkscape.org/namespaces/inkscape"
   xmlns:sodipodi="http://sodipodi.sourceforge.net/DTD/sodipodi-0.dtd"
   xmlns="http://www.w3.org/2000/svg"
   xmlns:svg="http://www.w3.org/2000/svg"><defs
     id="defs197" /><sodipodi:namedview
     id="namedview195"
     pagecolor="#ffffff"
     bordercolor="#666666"
     borderopacity="1.0"
     inkscape:showpageshadow="2"
     inkscape:pageopacity="0.0"
     inkscape:pagecheckerboard="0"
     inkscape:deskcolor="#d1d1d1"
     showgrid="false"
     inkscape:zoom="1.3037281"
     inkscape:cx="37.968039"
     inkscape:cy="55.609754"
     inkscape:window-width="1920"
     inkscape:window-height="1019"
     inkscape:window-x="0"
     inkscape:window-y="0"
     inkscape:window-maximized="1"
     inkscape:current-layer="svg193" /><path
     d="m 6.35656,3.03967 h 21.1664 c 0.586309,0 0.859726,0.5066707 1.05832,1.05832 l 0.952488,2.6457735 c 0.198594,0.5516493 -0.472011,1.05832 -1.05832,1.05832 H 5.404072 c -0.5863093,0 -1.2569137,-0.5066707 -1.05832,-1.05832 L 5.29824,4.09799 C 5.4968337,3.5463407 5.7702507,3.03967 6.35656,3.03967 Z"
     fill="#1e84d6"
     stroke="#272d2f"
     stroke-opacity="0.78431"
     id="path146"
     style="stroke-width:0.26458;fill:#6a6a6a;fill-opacity:1" /><path
     d="m 27.52296,3.17196 -3.333708,22.776105 c -0.0831,0.567762 -0.472011,1.035275 -1.05832,1.035275 H 10.748588 c -0.586309,0 -0.9752154,-0.467513 -1.05832,-1.035275 L 6.35656,3.17196 Z"
     opacity="0.3"
     id="path148"
     style="stroke-width:0.26458" /><g
     transform="matrix(-0.26331795,-0.0258119,-0.0258119,0.26331795,56.150516,-255.91271)"
     id="g156"><g
       transform="matrix(1.3428,0,0,1.3408,-0.22815,988.19)"
       id="g154"><path
         d="m 6.8655,0.87984 c 7.8515,0 34.264,0.002756 34.264,0.002756 l 4e-5,43.248 h -34.264 v -43.251 z"
         fill="#fafafa"
         id="path150" /><path
         d="m 6.5,0.49996 c 8.0203,0 35,0.0028 35,0.0028 l 4.2e-5,44.003 h -35 v -44.006 z"
         fill="none"
         stroke="#4f6698"
         stroke-linejoin="round"
         stroke-opacity="0.26667"
         stroke-width="0.74521"
         id="path152" /></g></g><g
     transform="matrix(0.26350103,-0.02387011,0.02387011,0.26350103,-20.927034,-256.20871)"
     id="g164"><g
       transform="matrix(1.3428,0,0,1.3408,-0.22815,988.19)"
       id="g162"><path
         d="m 6.8655,0.87984 c 7.8515,0 34.264,0.002756 34.264,0.002756 l 4e-5,43.248 h -34.264 v -43.251 z"
         fill="#fafafa"
         id="path158" /><path
         d="m 6.5,0.49996 c 8.0203,0 35,0.0028 35,0.0028 l 4.2e-5,44.003 h -35 v -44.006 z"
         fill="none"
         stroke="#4f6698"
         stroke-linejoin="round"
         stroke-opacity="0.26667"
         stroke-width="0.74521"
         id="path160" /></g></g><g
     transform="matrix(0.25209165,-0.08032668,0.08032668,0.25209165,-72.929153,-242.85611)"
     id="g172"><g
       transform="matrix(1.3428,0,0,1.3408,-0.22815,988.19)"
       id="g170"><path
         d="m 6.8655,0.87984 c 7.8515,0 34.264,0.002756 34.264,0.002756 l 4e-5,43.248 h -34.264 v -43.251 z"
         fill="#fafafa"
         id="path166" /><path
         d="m 6.5,0.49996 c 8.0203,0 35,0.0028 35,0.0028 l 4.2e-5,44.003 h -35 v -44.006 z"
         fill="none"
         stroke="#4f6698"
         stroke-linejoin="round"
         stroke-opacity="0.26667"
         stroke-width="0.74521"
         id="path168" /></g></g><g
     id="csdjuncds"
     transform="matrix(0.24525198,0.09926753,-0.09926753,0.24525198,112.59503,-241.38688)"><g
       transform="matrix(1.3428,0,0,1.3408,-0.22815,988.19)"
       id="g178"><path
         d="m 6.8655,0.87984 c 7.8515,0 34.264,0.002756 34.264,0.002756 l 4e-5,43.248 h -34.264 v -43.251 z"
         fill="#fafafa"
         id="path174" /><path
         d="m 6.5,0.49996 c 8.0203,0 35,0.0028 35,0.0028 l 4.2e-5,44.003 h -35 v -44.006 z"
         fill="none"
         stroke="#4f6698"
         stroke-linejoin="round"
         stroke-opacity="0.26667"
         stroke-width="0.74521"
         id="path176" /></g></g><path
     d="M 29.533768,7.27295 27.25838,29.796645 c -0.05704,0.564641 -0.472011,1.023819 -1.05832,1.023819 H 7.67946 c -0.5863093,0 -1.0012766,-0.459178 -1.05832,-1.023819 L 4.345752,7.27295 Z"
     fill="#1e84d6"
     stroke="#272d2f"
     stroke-opacity="0.78431"
     id="path181"
     style="stroke-width:0.26458;fill:#6a6a6a;fill-opacity:1" /><path
     d="m 12.606733,22.031752 c -0.135412,0.243201 -0.243196,0.609116 -0.243196,0.839697 0,0.05353 0,0.121606 0.01328,0.216051 l -1.692492,-2.910645 c -0.05418,-0.09444 -0.09452,-0.229941 -0.09452,-0.352023 0,-0.122236 0.04038,-0.270825 0.09452,-0.365438 l 0.812525,-1.421642 -0.907033,-0.514052 2.951654,-0.05464 1.434897,2.585714 -0.920315,-0.527943 z M 13.9068,13.509894 c 0.257029,-0.447246 0.677113,-0.690924 1.191166,-0.690924 0.555485,0 0.988841,0.257574 1.30004,0.784877 l 0.460422,0.771621 -1.597984,3.08024 -2.585714,-1.820522 z m 0.189027,10.86392 c -0.771621,0 -1.407831,-0.636289 -1.407831,-1.40791 0,-0.21668 0.09507,-0.582579 0.230487,-0.812525 l 0.4328,-0.771621 h 3.20909 v 2.992135 h -2.464642 z m 2.573014,-10.945675 c -0.202875,-0.351547 -0.473704,-0.59586 -0.798714,-0.731352 h 3.330268 c 0.297917,0 0.527864,0.122236 0.663831,0.352632 l 0.825807,1.40791 0.893302,-0.528419 -1.435558,2.572908 -2.937368,-0.04138 0.90706,-0.514053 z m 5.131793,7.980791 c 0.405707,0 0.744528,-0.108329 1.028661,-0.324534 l -1.67921,2.923874 c -0.135417,0.229936 -0.378773,0.37491 -0.662826,0.365438 h -1.584702 v 1.042472 l -1.516175,-2.531555 1.516175,-2.532189 v 1.056362 h 2.89821 z m 1.298929,-2.437099 c 0.122157,0.21668 0.190138,0.446611 0.190138,0.690448 0,0.487515 -0.311754,1.002044 -0.744528,1.245246 -0.203398,0.108975 -0.488573,0.193625 -0.771621,0.176877 h -0.894333 l -1.596952,-2.76248 2.585793,-1.475827 z"
     fill="#ffffff"
     id="path183"
     style="stroke-width:0.26458" /><g
     transform="matrix(0.26458,0,0,0.26458,0.00664,-0.003)"
     id="g189"><rect
       width="128"
       height="128"
       fill="none"
       id="rect187"
       x="0"
       y="0" /></g></svg>
