<?xml version="1.0" encoding="UTF-8" standalone="no"?>
<svg
   width="64"
   height="64"
   version="1.1"
   viewBox="0 0 16.933 16.933"
   id="svg199"
   sodipodi:docname="default-cut.svg"
   inkscape:version="1.2.2 (b0a8486541, 2022-12-01)"
   xmlns:inkscape="http://www.inkscape.org/namespaces/inkscape"
   xmlns:sodipodi="http://sodipodi.sourceforge.net/DTD/sodipodi-0.dtd"
   xmlns:xlink="http://www.w3.org/1999/xlink"
   xmlns="http://www.w3.org/2000/svg"
   xmlns:svg="http://www.w3.org/2000/svg">
  <sodipodi:namedview
     id="namedview201"
     pagecolor="#ffffff"
     bordercolor="#666666"
     borderopacity="1.0"
     inkscape:showpageshadow="2"
     inkscape:pageopacity="0.0"
     inkscape:pagecheckerboard="0"
     inkscape:deskcolor="#d1d1d1"
     showgrid="false"
     inkscape:zoom="5.59"
     inkscape:cx="11.627907"
     inkscape:cy="23.881932"
     inkscape:window-width="1920"
     inkscape:window-height="1019"
     inkscape:window-x="0"
     inkscape:window-y="0"
     inkscape:window-maximized="1"
     inkscape:current-layer="svg199" />
  <defs
     id="defs171">
    <linearGradient
       id="a">
      <stop
         offset="0"
         id="stop164" />
      <stop
         stop-opacity="0"
         offset="1"
         id="stop166" />
    </linearGradient>
    <linearGradient
       id="d"
       x1="-197.1"
       x2="-196.91"
       y1="217.68"
       y2="219.36"
       gradientTransform="matrix(.42425 -.42425 .42425 .42425 6.0324 -166.35)"
       gradientUnits="userSpaceOnUse"
       xlink:href="#a" />
    <linearGradient
       id="c-7"
       x1="-197.1"
       x2="-196.91"
       y1="217.68"
       y2="219.36"
       gradientTransform="matrix(0.42425,-0.42425,0.42425,0.42425,1.0061,-162.38)"
       gradientUnits="userSpaceOnUse"
       xlink:href="#a" />
    <linearGradient
       id="c"
       x1="-197.10001"
       x2="-196.91"
       y1="217.67999"
       y2="219.36"
       gradientTransform="matrix(0.70711651,-0.70711651,0.70711651,0.70711651,-28.349206,-286.08865)"
       gradientUnits="userSpaceOnUse">
      <stop
         offset="0"
         id="stop314" />
      <stop
         stop-opacity="0"
         offset="1"
         id="stop316" />
    </linearGradient>
    <linearGradient
       inkscape:collect="always"
       xlink:href="#a"
       id="linearGradient1706"
       gradientUnits="userSpaceOnUse"
       gradientTransform="matrix(0.42425,-0.42425,0.42425,0.42425,6.0324,-166.35)"
       x1="-197.1"
       y1="217.68"
       x2="-196.91"
       y2="219.36" />
  </defs>
  <g
     id="g1720"
     transform="translate(-5.027,3.969)"
     style="opacity:0.35">
    <path
       d="M 8.096,3.122 C 7.92,3.122 7.86,3.283 7.779,3.439 H 7.302 A 0.317,0.317 0 0 0 6.985,3.757 v 3.175 c 0,0.176 0.142,0.317 0.317,0.317 h 7.62 A 0.317,0.317 0 0 0 15.24,6.932 V 3.757 A 0.317,0.317 0 0 0 14.922,3.439 H 10.636 C 10.543,3.29 10.495,3.122 10.319,3.122 Z"
       fill="#fb8441"
       paint-order="markers stroke fill"
       id="path187-7"
       style="fill:#f9c470;fill-opacity:1" />
    <path
       d="M 8.096,3.122 C 7.92,3.122 7.86,3.283 7.779,3.439 H 7.302 A 0.317,0.317 0 0 0 6.985,3.757 v 3.175 c 0,0.176 0.142,0.317 0.317,0.317 h 7.62 A 0.317,0.317 0 0 0 15.24,6.932 V 3.757 A 0.317,0.317 0 0 0 14.922,3.439 H 10.636 C 10.543,3.29 10.495,3.122 10.319,3.122 Z"
       opacity="0.1"
       stroke="#000000"
       stroke-opacity="0.96895"
       stroke-width="0.26458"
       paint-order="markers stroke fill"
       id="path189-5" />
    <rect
       x="7.461"
       y="3.915"
       width="7.303"
       height="3.016"
       ry="0.15899999"
       fill="#ffffff"
       paint-order="markers stroke fill"
       id="rect191-3" />
    <path
       d="m 11.112,4.233 c -0.175,0 -0.228,0.165 -0.317,0.317 L 10.61,4.868 H 6.667 A 0.316,0.316 0 0 0 6.35,5.185 v 5.08 c 0,0.177 0.141,0.318 0.317,0.318 h 8.89 a 0.316,0.316 0 0 0 0.318,-0.317 V 4.55 A 0.316,0.316 0 0 0 15.558,4.233 Z"
       fill="#fb8441"
       stroke="#000000"
       stroke-opacity="0.16"
       stroke-width="0.26458"
       style="fill:#f9c470;fill-opacity:1;paint-order:stroke fill markers"
       id="path193-5" />
    <rect
       x="8.2550001"
       y="3.28"
       width="1.905"
       height="0.317"
       ry="0.15899999"
       opacity="0.25"
       paint-order="stroke markers fill"
       id="rect195-6" />
    <path
       d="m 15.875,8.6774 -1.9053,1.9053 h 1.588 c 0.17584,0 0.31728,-0.14197 0.31728,-0.31781 z"
       fill="url(#d)"
       opacity="0.1"
       stroke-width="0.60002"
       id="path197-2"
       style="fill:url(#linearGradient1706)" />
  </g>
  <path
     d="m8.096 3.122c-0.176 0-0.236 0.161-0.317 0.317h-0.477a0.317 0.317 0 0 0-0.317 0.318v3.175c0 0.176 0.142 0.317 0.317 0.317h7.62a0.317 0.317 0 0 0 0.318-0.317v-3.175a0.317 0.317 0 0 0-0.318-0.318h-4.286c-0.093-0.149-0.141-0.317-0.317-0.317z"
     fill="#fb8441"
     paint-order="markers stroke fill"
     id="path187"
     style="fill:#f9c470;fill-opacity:1" />
  <path
     d="m8.096 3.122c-0.176 0-0.236 0.161-0.317 0.317h-0.477a0.317 0.317 0 0 0-0.317 0.318v3.175c0 0.176 0.142 0.317 0.317 0.317h7.62a0.317 0.317 0 0 0 0.318-0.317v-3.175a0.317 0.317 0 0 0-0.318-0.318h-4.286c-0.093-0.149-0.141-0.317-0.317-0.317z"
     opacity=".1"
     stroke="#000000"
     stroke-opacity=".96895"
     stroke-width=".26458"
     paint-order="markers stroke fill"
     id="path189" />
  <rect
     x="7.461"
     y="3.915"
     width="7.303"
     height="3.016"
     ry=".159"
     fill="#ffffff"
     paint-order="markers stroke fill"
     id="rect191" />
  <path
     d="m11.112 4.233c-0.175 0-0.228 0.165-0.317 0.317l-0.185 0.318h-3.943a0.316 0.316 0 0 0-0.317 0.317v5.08c0 0.177 0.141 0.318 0.317 0.318h8.89a0.316 0.316 0 0 0 0.318-0.317v-5.716a0.316 0.316 0 0 0-0.317-0.317z"
     fill="#fb8441"
     stroke="#000000"
     stroke-opacity=".16"
     stroke-width=".26458"
     style="paint-order:stroke fill markers;fill:#f9c470;fill-opacity:1"
     id="path193" />
  <rect
     x="8.255"
     y="3.28"
     width="1.905"
     height=".317"
     ry=".159"
     opacity=".25"
     paint-order="stroke markers fill"
     id="rect195" />
  <path
     d="m15.875 8.6774-1.9053 1.9053h1.588c0.17584 0 0.31728-0.14197 0.31728-0.31781z"
     fill="url(#d)"
     opacity=".1"
     stroke-width=".60002"
     id="path197" />
</svg>
