<?xml version="1.0" encoding="UTF-8" standalone="no"?>
<svg
   width="64"
   height="64"
   version="1.1"
   viewBox="0 0 16.933 16.933"
   id="svg193"
   sodipodi:docname="default-fileopen.svg"
   inkscape:version="1.2.2 (b0a8486541, 2022-12-01)"
   xmlns:inkscape="http://www.inkscape.org/namespaces/inkscape"
   xmlns:sodipodi="http://sodipodi.sourceforge.net/DTD/sodipodi-0.dtd"
   xmlns="http://www.w3.org/2000/svg"
   xmlns:svg="http://www.w3.org/2000/svg">
  <sodipodi:namedview
     id="namedview195"
     pagecolor="#ffffff"
     bordercolor="#666666"
     borderopacity="1.0"
     inkscape:showpageshadow="2"
     inkscape:pageopacity="0.0"
     inkscape:pagecheckerboard="0"
     inkscape:deskcolor="#d1d1d1"
     showgrid="false"
     inkscape:zoom="3.6875"
     inkscape:cx="19.661017"
     inkscape:cy="32.40678"
     inkscape:window-width="1920"
     inkscape:window-height="1019"
     inkscape:window-x="0"
     inkscape:window-y="0"
     inkscape:window-maximized="1"
     inkscape:current-layer="svg193" />
  <defs
     id="defs169">
    <linearGradient
       id="c-7"
       x1="-197.1"
       x2="-196.91"
       y1="217.68"
       y2="219.37"
       gradientTransform="rotate(-45 -338.07 -140.03)"
       gradientUnits="userSpaceOnUse">
      <stop
         offset="0"
         id="stop164" />
      <stop
         stop-opacity="0"
         offset="1"
         id="stop166" />
    </linearGradient>
    <linearGradient
       id="c"
       x1="-197.10001"
       x2="-196.91"
       y1="217.67999"
       y2="219.36"
       gradientTransform="matrix(0.70711651,-0.70711651,0.70711651,0.70711651,-32.792488,-277.21563)"
       gradientUnits="userSpaceOnUse">
      <stop
         offset="0"
         id="stop314" />
      <stop
         stop-opacity="0"
         offset="1"
         id="stop316" />
    </linearGradient>
  </defs>
  <path
     d="m3.44 2.381c-0.294 0-0.395 0.269-0.53 0.53h-1.058c-0.265 0-0.265 0.264-0.265 0.264v5.556c0 0.293 0.237 0.53 0.53 0.53h12.7a0.529 0.529 0 0 0 0.529-0.53v-5.556c0-0.265-0.265-0.265-0.265-0.265h-7.408c-0.155-0.249-0.236-0.53-0.53-0.53z"
     fill="#fb8441"
     paint-order="markers stroke fill"
     id="path171"
     style="fill:#f9c470;fill-opacity:1" />
  <path
     d="m3.44 2.381c-0.294 0-0.395 0.269-0.53 0.53h-1.058c-0.265 0-0.265 0.264-0.265 0.264v5.556c0 0.293 0.237 0.53 0.53 0.53h12.7a0.529 0.529 0 0 0 0.529-0.53v-5.556c0-0.265-0.265-0.265-0.265-0.265h-7.408c-0.155-0.249-0.236-0.53-0.53-0.53z"
     opacity=".18"
     stroke="#000000"
     stroke-width=".52916"
     paint-order="markers stroke fill"
     id="path173" />
  <rect
     x="2.3810005"
     y="1.323"
     width="12.171"
     height="7.408"
     rx="0.26499999"
     ry="0.26499999"
     fill="none"
     stroke="#000000"
     stroke-opacity="0.267"
     stroke-width="0.529"
     paint-order="markers stroke fill"
     id="rect175" />
  <rect
     x="2.3810005"
     y="1.323"
     width="12.171"
     height="7.408"
     rx="0.26499999"
     ry="0.26499999"
     fill="#ffffff"
     paint-order="markers stroke fill"
     id="rect177" />
  <rect
     x="4.233"
     y="5.556"
     width="8.467"
     height=".529"
     ry=".265"
     fill="#bbbbbb"
     paint-order="stroke markers fill"
     id="rect179" />
  <rect
     x="4.2330003"
     y="4.4980001"
     width="8.467"
     height="0.52899998"
     ry="0.26499999"
     fill="#bbbbbb"
     paint-order="stroke markers fill"
     id="rect181" />
  <path
     d="m8.467 5.027c-0.293 0-0.382 0.276-0.53 0.529l-0.463 0.794h-6.68c-0.265 0-0.265 0.264-0.265 0.264v7.938s0 0.264 0.265 0.264h15.346s0.264 0 0.264-0.264v-9.261c0-0.264-0.264-0.264-0.264-0.264z"
     fill="none"
     stroke="#762c02"
     stroke-opacity=".561"
     stroke-width=".529"
     paint-order="markers stroke fill"
     id="path183" />
  <rect
     x="4.2330003"
     y="2.381"
     width="8.467"
     height="0.52899998"
     ry="0.26499999"
     fill="#bbbbbb"
     paint-order="stroke markers fill"
     id="rect185" />
  <rect
     x="4.2330003"
     y="3.4389999"
     width="8.467"
     height="0.52899998"
     ry="0.26499999"
     fill="#bbbbbb"
     paint-order="stroke markers fill"
     id="rect187" />
  <path
     d="m 8.4669955,5.027 c -0.292999,0 -0.382,0.276 -0.53,0.529 l -0.463,0.794 H 0.793997 c -0.265,0 -0.265,0.264 -0.265,0.264 v 7.938 c 0,0 0,0.264 0.265,0.264 h 15.345998 c 0,0 0.264,0 0.264,-0.264 V 5.291 c 0,-0.264 -0.264,-0.264 -0.264,-0.264 z"
     fill="#fb8441"
     paint-order="markers stroke fill"
     id="path189"
     style="fill:#f9c470;fill-opacity:1" />
  <path
     d="m16.404 11.641-3.1744 3.1749h2.6458c0.29307 0 0.52864-0.23557 0.52864-0.52864z"
     fill="url(#c-7)"
     opacity=".1"
     stroke-width=".26458"
     id="path191" />
</svg>
