<?xml version="1.0" encoding="UTF-8" standalone="no"?>
<svg
   width="64"
   height="64"
   version="1.1"
   viewBox="0 0 16.933 16.933"
   id="svg1065"
   sodipodi:docname="default-folder-open.svg"
   inkscape:version="1.2.2 (b0a8486541, 2022-12-01)"
   xmlns:inkscape="http://www.inkscape.org/namespaces/inkscape"
   xmlns:sodipodi="http://sodipodi.sourceforge.net/DTD/sodipodi-0.dtd"
   xmlns="http://www.w3.org/2000/svg"
   xmlns:svg="http://www.w3.org/2000/svg">
  <sodipodi:namedview
     id="namedview1067"
     pagecolor="#ffffff"
     bordercolor="#666666"
     borderopacity="1.0"
     inkscape:showpageshadow="2"
     inkscape:pageopacity="0.0"
     inkscape:pagecheckerboard="0"
     inkscape:deskcolor="#d1d1d1"
     showgrid="false"
     inkscape:zoom="3.6875"
     inkscape:cx="19.661017"
     inkscape:cy="32.135593"
     inkscape:window-width="1920"
     inkscape:window-height="1019"
     inkscape:window-x="0"
     inkscape:window-y="0"
     inkscape:window-maximized="1"
     inkscape:current-layer="svg1065" />
  <defs
     id="defs1053">
    <linearGradient
       id="c-3"
       x1="-197.1"
       x2="-196.91"
       y1="217.68"
       y2="219.37"
       gradientTransform="rotate(-45 -338.07 -140.03)"
       gradientUnits="userSpaceOnUse">
      <stop
         offset="0"
         id="stop1048" />
      <stop
         stop-opacity="0"
         offset="1"
         id="stop1050" />
    </linearGradient>
    <linearGradient
       id="c"
       x1="-197.10001"
       x2="-196.91"
       y1="217.67999"
       y2="219.36"
       gradientTransform="matrix(0.70711651,-0.70711651,0.70711651,0.70711651,-23.533999,-286.71869)"
       gradientUnits="userSpaceOnUse">
      <stop
         offset="0"
         id="stop314" />
      <stop
         stop-opacity="0"
         offset="1"
         id="stop316" />
    </linearGradient>
  </defs>
  <path
     d="m3.44 2.378c-0.294 0-0.395 0.269-0.53 0.53h-1.058c-0.265 0-0.265 0.264-0.265 0.264v5.556c0 0.293 0.237 0.53 0.53 0.53h12.7a0.529 0.529 0 0 0 0.529-0.53v-5.556c0-0.265-0.265-0.265-0.265-0.265h-7.408c-0.155-0.249-0.236-0.53-0.53-0.53z"
     fill="#ffffff"
     stroke="#000000"
     stroke-opacity=".255"
     stroke-width=".529"
     paint-order="markers stroke fill"
     id="path1055" />
  <path
     d="m3.44 2.378c-0.294 0-0.395 0.269-0.53 0.53h-1.058c-0.265 0-0.265 0.264-0.265 0.264v5.556c0 0.293 0.237 0.53 0.53 0.53h12.7a0.529 0.529 0 0 0 0.529-0.53v-5.556c0-0.265-0.265-0.265-0.265-0.265h-7.408c-0.155-0.249-0.236-0.53-0.53-0.53z"
     fill="#ffffff"
     paint-order="markers stroke fill"
     id="path1057" />
  <path
     d="m8.467 6.611c-0.293 0-0.382 0.276-0.53 0.53l-0.154 0.264h-6.99c-0.264 0-0.264 0.265-0.264 0.265v6.879s0 0.264 0.265 0.264h15.346s0.264 0 0.264-0.264v-7.673c0-0.265-0.264-0.265-0.264-0.265z"
     fill="#fb8441"
     stroke="#762c02"
     stroke-opacity=".561"
     stroke-width=".529"
     paint-order="markers stroke fill"
     id="path1059"
     style="fill:#f9c470;fill-opacity:1" />
  <path
     d="m 8.4669975,6.611 c -0.293,0 -0.382001,0.276 -0.530001,0.53 l -0.154,0.264 H 0.792998 c -0.264,0 -0.264,0.265 -0.264,0.265 v 6.879 c 0,0 0,0.264 0.265,0.264 h 15.345998 c 0,0 0.264,0 0.264,-0.264 V 6.876 c 0,-0.265 -0.264,-0.265 -0.264,-0.265 z"
     fill="#fb8441"
     paint-order="markers stroke fill"
     id="path1061"
     style="fill:#f9c470;fill-opacity:1" />
  <path
     d="m16.404 11.641-3.1744 3.1749h2.6458c0.29307 0 0.52864-0.23557 0.52864-0.52864z"
     fill="url(#c-3)"
     opacity=".1"
     stroke-width=".26458"
     id="path1063" />
</svg>
