<?xml version="1.0" encoding="UTF-8" standalone="no"?>
<svg
   width="32"
   height="32"
   version="1.1"
   id="svg161"
   sodipodi:docname="computer.svg"
   inkscape:version="1.2.2 (b0a8486541, 2022-12-01)"
   xmlns:inkscape="http://www.inkscape.org/namespaces/inkscape"
   xmlns:sodipodi="http://sodipodi.sourceforge.net/DTD/sodipodi-0.dtd"
   xmlns="http://www.w3.org/2000/svg"
   xmlns:svg="http://www.w3.org/2000/svg">
  <defs
     id="defs165">
    <linearGradient
       id="screen"
       x1="3.2659863"
       y1="9.797959"
       x2="3.2659863"
       y2="29.393877"
       gradientTransform="scale(1.2247449,0.81649658)"
       gradientUnits="userSpaceOnUse">
      <stop
         offset="0%"
         style="stop-color:#E0E0E0"
         id="stop7" />
      <!-- Gray 300 -->
      <stop
         offset="100%"
         style="stop-color:#BDBDBD"
         id="stop9" />
      <!-- Gray 400 -->
    </linearGradient>
  </defs>
  <sodipodi:namedview
     id="namedview163"
     pagecolor="#ffffff"
     bordercolor="#666666"
     borderopacity="1.0"
     inkscape:showpageshadow="2"
     inkscape:pageopacity="0.0"
     inkscape:pagecheckerboard="0"
     inkscape:deskcolor="#d1d1d1"
     showgrid="false"
     inkscape:zoom="7.375"
     inkscape:cx="4.6101695"
     inkscape:cy="16.20339"
     inkscape:window-width="1920"
     inkscape:window-height="1019"
     inkscape:window-x="0"
     inkscape:window-y="0"
     inkscape:window-maximized="1"
     inkscape:current-layer="svg161" />
  <path
     d="m 13.237,22 c -0.404,0 -0.73,0.275 -0.729,0.616 v 4.845 l -2.277,0.154 c -0.404,0 -0.728,0.275 -0.728,0.616 V 29 h 13 v -0.769 c 0,-0.34 -0.325,-0.616 -0.729,-0.616 L 19.507,27.461 V 22.616 C 19.507,22.275 19.182,22 18.778,22 Z"
     fill="none"
     stroke="#4c427f"
     stroke-opacity="0.291"
     id="path151" />
  <path
     d="m 13.458,21.917 c -0.26,0 -0.452,0.184 -0.45,0.407 v 5.349 l -2.545,0.184 h -0.01 c -0.26,0 -0.45,0.184 -0.45,0.407 v 0.269 h 12 v -0.269 c 0,-0.223 -0.19,-0.407 -0.45,-0.407 h -0.012 l -2.543,-0.184 v -5.349 c 0,-0.223 -0.19,-0.407 -0.45,-0.407 z"
     fill="#fafafa"
     id="path153" />
  <rect
     x="1.4999939"
     y="3.0000014"
     width="29"
     height="19"
     rx="1"
     ry="1"
     fill="#474355"
     stroke="#292531"
     stroke-dashoffset="0.5"
     stroke-linecap="round"
     stroke-linejoin="round"
     stroke-opacity="0.784"
     id="rect155" />
  <path
     d="m 2,3.5 h 28 v 18 H 2 Z"
     fill="#9677e2"
     fill-rule="evenodd"
     id="path157"
     style="font-variation-settings:normal;opacity:1;vector-effect:none;fill:#f9f9f9;fill-opacity:1;stroke-width:1;stroke-linecap:butt;stroke-linejoin:miter;stroke-miterlimit:4;stroke-dasharray:none;stroke-dashoffset:0;stroke-opacity:1;-inkscape-stroke:none;stop-color:#000000;stop-opacity:1" />
</svg>
