<?xml version="1.0" encoding="UTF-8" standalone="no"?>
<svg
   width="96"
   height="96"
   version="1.1"
   viewBox="0 0 25.4 25.4"
   id="svg450"
   sodipodi:docname="default-folder-music.svg"
   inkscape:version="1.2.2 (b0a8486541, 2022-12-01)"
   xmlns:inkscape="http://www.inkscape.org/namespaces/inkscape"
   xmlns:sodipodi="http://sodipodi.sourceforge.net/DTD/sodipodi-0.dtd"
   xmlns="http://www.w3.org/2000/svg"
   xmlns:svg="http://www.w3.org/2000/svg">
  <sodipodi:namedview
     id="namedview452"
     pagecolor="#ffffff"
     bordercolor="#666666"
     borderopacity="1.0"
     inkscape:showpageshadow="2"
     inkscape:pageopacity="0.0"
     inkscape:pagecheckerboard="0"
     inkscape:deskcolor="#d1d1d1"
     showgrid="false"
     inkscape:zoom="2.4583333"
     inkscape:cx="29.491525"
     inkscape:cy="48.20339"
     inkscape:window-width="1920"
     inkscape:window-height="1019"
     inkscape:window-x="0"
     inkscape:window-y="0"
     inkscape:window-maximized="1"
     inkscape:current-layer="svg450" />
  <defs
     id="defs432">
    <linearGradient
       id="c-3"
       x1="-197.1"
       x2="-196.91"
       y1="217.68"
       y2="219.36"
       gradientTransform="matrix(1.0606 -1.0606 1.0606 1.0606 -.00028315 -420.36)"
       gradientUnits="userSpaceOnUse">
      <stop
         offset="0"
         id="stop427" />
      <stop
         stop-opacity="0"
         offset="1"
         id="stop429" />
    </linearGradient>
    <linearGradient
       id="c"
       x1="-197.10001"
       x2="-196.91"
       y1="217.67999"
       y2="219.36"
       gradientTransform="matrix(1.0606483,-1.0606483,1.0606483,1.0606483,-35.194351,-418.51021)"
       gradientUnits="userSpaceOnUse">
      <stop
         offset="0"
         id="stop2" />
      <stop
         stop-opacity="0"
         offset="1"
         id="stop4" />
    </linearGradient>
  </defs>
  <path
     d="m5.16 3.175c-0.44 0-0.592 0.403-0.794 0.794h-1.72c-0.265 0-0.265 0.264-0.265 0.264v8.467c0 0.44 0.354 0.794 0.794 0.794h19.05c0.44 0 0.794-0.354 0.794-0.794v-8.467c0-0.264-0.265-0.264-0.265-0.264h-11.244c-0.233-0.373-0.354-0.794-0.793-0.794z"
     fill="#ffffff"
     stroke="#000000"
     stroke-opacity=".267"
     stroke-width=".529"
     paint-order="markers stroke fill"
     id="path434" />
  <path
     d="m5.16 3.175c-0.44 0-0.592 0.403-0.794 0.794h-1.72c-0.265 0-0.265 0.264-0.265 0.264v8.467c0 0.44 0.354 0.794 0.794 0.794h19.05c0.44 0 0.794-0.354 0.794-0.794v-8.467c0-0.264-0.265-0.264-0.265-0.264h-11.244c-0.233-0.373-0.354-0.794-0.793-0.794z"
     fill="#ffffff"
     paint-order="markers stroke fill"
     id="path436" />
  <path
     d="m 12.7,6.085 c -0.44,0 -0.572,0.414 -0.794,0.794 L 11.443,7.673 H 1.058 A 0.264,0.264 0 0 0 0.79399997,7.937 v 13.759 c 0,0.146 0.118,0.264 0.26400003,0.264 h 23.284 a 0.264,0.264 0 0 0 0.264,-0.264 V 6.35 c 0,-0.265 -0.264,-0.265 -0.264,-0.265 z"
     fill="#fb8441"
     stroke="#762c02"
     stroke-opacity="0.561"
     stroke-width="0.52916"
     paint-order="markers stroke fill"
     id="path438"
     style="fill:#f9c470;fill-opacity:1" />
  <rect
     x="5.556"
     y="3.704"
     width="4.762"
     height=".794"
     ry=".397"
     opacity=".25"
     paint-order="stroke markers fill"
     id="rect440" />
  <path
     d="m 12.7,6.085 c -0.44,0 -0.572,0.414 -0.794,0.794 L 11.443,7.673 H 1.0579996 A 0.264,0.264 0 0 0 0.79399963,7.937 v 13.759 c 0,0.146 0.118,0.264 0.26399997,0.264 H 24.342 a 0.264,0.264 0 0 0 0.264,-0.264 V 6.35 c 0,-0.265 -0.264,-0.265 -0.264,-0.265 z"
     fill="#fb8441"
     paint-order="markers stroke fill"
     id="path442"
     style="fill:#f9c470;fill-opacity:1" />
  <path
     d="M10.848 10.583v1.588h5.292v-1.588zm3.969 5.292a1.323 1.058 0 0 0-1.323 1.058 1.323 1.058 0 0 0 1.323 1.059 1.323 1.058 0 0 0 1.323-1.059 1.323 1.058 0 0 0-1.323-1.058zm-5.557.53a1.323 1.058 0 0 0-1.322 1.057 1.323 1.058 0 0 0 1.322 1.059 1.323 1.058 0 0 0 1.323-1.059 1.323 1.058 0 0 0-1.323-1.058z"
     opacity=".15"
     id="path444" />
  <path
     d="M10.583 10.319v6.414a1.587 1.323 0 0 0-1.323-.593 1.587 1.323 0 0 0-1.587 1.322 1.587 1.323 0 0 0 1.587 1.323 1.587 1.323 0 0 0 1.588-1.323v-5.027h5.292v3.77a1.587 1.323 0 0 0-1.323-.595 1.587 1.323 0 0 0-1.588 1.323 1.587 1.323 0 0 0 1.588 1.323 1.587 1.323 0 0 0 1.587-1.323 1.587 1.323 0 0 0-.01-.142h.01V10.32zm.265.264h5.292v1.588h-5.292zm3.969 5.292a1.323 1.058 0 0 1 1.323 1.058 1.323 1.058 0 0 1-1.323 1.059 1.323 1.058 0 0 1-1.323-1.059 1.323 1.058 0 0 1 1.323-1.058zm-5.557.53a1.323 1.058 0 0 1 1.323 1.057 1.323 1.058 0 0 1-1.323 1.059 1.323 1.058 0 0 1-1.322-1.059 1.323 1.058 0 0 1 1.322-1.058z"
     opacity=".3"
     id="path446" />
  <path
     d="m24.605 17.197-4.763 4.763h3.9692c0.4396 0 0.79374-0.35414 0.79374-0.79374z"
     fill="url(#c-3)"
     opacity=".1"
     stroke-width=".26458"
     id="path448" />
</svg>
