<?xml version="1.0" encoding="UTF-8" standalone="no"?>
<svg
   width="96"
   height="96"
   version="1.1"
   viewBox="0 0 25.4 25.4"
   id="svg588"
   sodipodi:docname="default-folder-open.svg"
   inkscape:version="1.2.2 (b0a8486541, 2022-12-01)"
   xmlns:inkscape="http://www.inkscape.org/namespaces/inkscape"
   xmlns:sodipodi="http://sodipodi.sourceforge.net/DTD/sodipodi-0.dtd"
   xmlns="http://www.w3.org/2000/svg"
   xmlns:svg="http://www.w3.org/2000/svg">
  <sodipodi:namedview
     id="namedview590"
     pagecolor="#ffffff"
     bordercolor="#666666"
     borderopacity="1.0"
     inkscape:showpageshadow="2"
     inkscape:pageopacity="0.0"
     inkscape:pagecheckerboard="0"
     inkscape:deskcolor="#d1d1d1"
     showgrid="false"
     inkscape:zoom="2.4583333"
     inkscape:cx="29.491525"
     inkscape:cy="48.20339"
     inkscape:window-width="1920"
     inkscape:window-height="1019"
     inkscape:window-x="0"
     inkscape:window-y="0"
     inkscape:window-maximized="1"
     inkscape:current-layer="svg588" />
  <defs
     id="defs576">
    <linearGradient
       id="c-3"
       x1="-197.1"
       x2="-196.91"
       y1="217.68"
       y2="219.36"
       gradientTransform="matrix(1.0606 -1.0606 1.0606 1.0606 -.00028315 -420.36)"
       gradientUnits="userSpaceOnUse">
      <stop
         offset="0"
         id="stop571" />
      <stop
         stop-opacity="0"
         offset="1"
         id="stop573" />
    </linearGradient>
    <linearGradient
       id="c"
       x1="-197.10001"
       x2="-196.91"
       y1="217.67999"
       y2="219.36"
       gradientTransform="matrix(1.0606483,-1.0606483,1.0606483,1.0606483,-33.795198,-420.01699)"
       gradientUnits="userSpaceOnUse">
      <stop
         offset="0"
         id="stop2" />
      <stop
         stop-opacity="0"
         offset="1"
         id="stop4" />
    </linearGradient>
  </defs>
  <path
     d="m5.027 3.44c-0.44 0-0.592 0.403-0.794 0.793h-1.587c-0.265 0-0.265 0.265-0.265 0.265v8.334c0 0.44 0.354 0.794 0.794 0.794h19.05c0.44 0 0.794-0.354 0.794-0.794v-8.334c0-0.265-0.265-0.265-0.265-0.265h-11.112c-0.233-0.373-0.354-0.793-0.794-0.793z"
     fill="#ffffff"
     stroke="#000000"
     stroke-opacity=".255"
     stroke-width=".529"
     paint-order="markers stroke fill"
     id="path578" />
  <path
     d="m5.027 3.44c-0.44 0-0.592 0.403-0.794 0.793h-1.587c-0.265 0-0.265 0.265-0.265 0.265v8.334c0 0.44 0.354 0.794 0.794 0.794h19.05c0.44 0 0.794-0.354 0.794-0.794v-8.334c0-0.265-0.265-0.265-0.265-0.265h-11.112c-0.233-0.373-0.354-0.793-0.794-0.793z"
     fill="#ffffff"
     paint-order="markers stroke fill"
     id="path580" />
  <path
     d="m12.7 9.525c-0.44 0-0.572 0.546-0.794 0.926l-0.232 0.397h-10.616c-0.264 0-0.264 0.264-0.264 0.264v10.584c0 0.264 0.264 0.264 0.264 0.264h23.284s0.264 0 0.264-0.264v-11.906c0-0.265-0.264-0.265-0.264-0.265z"
     fill="#5294e2"
     stroke="#003479"
     stroke-opacity=".561"
     stroke-width=".529"
     paint-order="markers stroke fill"
     id="path582"
     style="fill:#f9c470;fill-opacity:1;stroke:#762c02;stroke-opacity:0.56078434" />
  <path
     d="m 12.7,9.525 c -0.44,0 -0.572,0.546 -0.794,0.926 l -0.232,0.397 H 1.0579996 c -0.26399997,0 -0.26399997,0.264 -0.26399997,0.264 v 10.584 c 0,0.264 0.26399997,0.264 0.26399997,0.264 H 24.342 c 0,0 0.264,0 0.264,-0.264 V 9.79 c 0,-0.265 -0.264,-0.265 -0.264,-0.265 z"
     fill="#fb8441"
     paint-order="markers stroke fill"
     id="path584"
     style="fill:#f9c470;fill-opacity:1" />
  <path
     d="m24.605 17.197-4.763 4.763h3.9692c0.4396 0 0.79374-0.35414 0.79374-0.79374z"
     fill="url(#c-3)"
     opacity=".1"
     stroke-width=".26458"
     id="path586" />
</svg>
