<?xml version="1.0" encoding="UTF-8" standalone="no"?>
<svg
   width="96"
   height="96"
   version="1.1"
   id="svg2458"
   sodipodi:docname="user-trash-full.svg"
   inkscape:version="1.2.2 (b0a8486541, 2022-12-01)"
   xmlns:inkscape="http://www.inkscape.org/namespaces/inkscape"
   xmlns:sodipodi="http://sodipodi.sourceforge.net/DTD/sodipodi-0.dtd"
   xmlns="http://www.w3.org/2000/svg"
   xmlns:svg="http://www.w3.org/2000/svg">
  <sodipodi:namedview
     id="namedview2460"
     pagecolor="#ffffff"
     bordercolor="#666666"
     borderopacity="1.0"
     inkscape:showpageshadow="2"
     inkscape:pageopacity="0.0"
     inkscape:pagecheckerboard="0"
     inkscape:deskcolor="#d1d1d1"
     showgrid="false"
     inkscape:zoom="2.4583333"
     inkscape:cx="21.355932"
     inkscape:cy="40.881356"
     inkscape:window-width="1920"
     inkscape:window-height="1019"
     inkscape:window-x="0"
     inkscape:window-y="0"
     inkscape:window-maximized="1"
     inkscape:current-layer="svg2458" />
  <defs
     id="defs2426">
    <linearGradient
       id="f">
      <stop
         offset="0"
         stop-color="#f2c66f"
         id="stop2396" />
      <stop
         offset="1"
         stop-color="#fbd68f"
         id="stop2398" />
    </linearGradient>
    <linearGradient
       id="e">
      <stop
         offset="0"
         id="stop2401" />
      <stop
         offset="1"
         stop-opacity="0"
         id="stop2403" />
    </linearGradient>
    <linearGradient
       id="d">
      <stop
         offset="0"
         stop-color="#f8f4e1"
         id="stop2406" />
      <stop
         offset="1"
         stop-color="#ad9e57"
         id="stop2408" />
    </linearGradient>
    <linearGradient
       id="c">
      <stop
         offset="0"
         stop-color="#49b7ef"
         id="stop2411" />
      <stop
         offset="1"
         stop-color="#1d8de2"
         id="stop2413" />
    </linearGradient>
    <linearGradient
       id="b">
      <stop
         offset="0"
         stop-color="#fdfeff"
         id="stop2416" />
      <stop
         offset="1"
         stop-color="#dfe4e4"
         id="stop2418" />
    </linearGradient>
    <linearGradient
       id="a">
      <stop
         offset="0"
         id="stop2421" />
      <stop
         offset="1"
         stop-opacity=".294"
         id="stop2423" />
    </linearGradient>
  </defs>
  <path
     fill="none"
     d="M0 0h96v96H0z"
     id="path2428" />
  <path
     d="M18 8.5h60c1.662 0 2.437 1.41 3 2.944l2.7 7.362c.563 1.534-1.338 2.944-3 2.944H15.3c-1.662 0-3.563-1.41-3-2.944l2.7-7.362C15.563 9.91 16.338 8.5 18 8.5z"
     fill="#1e84d6"
     stroke="#072135"
     stroke-opacity=".784"
     id="path2430"
     style="fill:#6a6a6a;fill-opacity:1" />
  <path
     d="M78 9l-9.45 64.563c-.236 1.61-1.338 2.935-3 2.935h-35.1c-1.662 0-2.764-1.326-3-2.935L18 9z"
     opacity=".3"
     id="path2432" />
  <path
     d="M80.74 12.526L46.525 9.177 42.3 52.26l34.214 3.35 4.227-43.084z"
     fill="#fafafa"
     id="path2434" />
  <path
     d="M6.5.5l35 .003v44.003h-35V.5z"
     fill="none"
     stroke="#4f6698"
     stroke-width=".998"
     stroke-linejoin="round"
     stroke-opacity=".267"
     transform="matrix(-.99856 -.0978 -.09773 .99616 87.681 12.32)"
     id="path2436" />
  <path
     d="M15.258 12.271l34.238-3.096 3.909 43.112-34.238 3.099-3.91-43.115z"
     fill="#fafafa"
     id="path2438" />
  <path
     d="M6.5.5l35 .003v44.003h-35V.5z"
     fill="none"
     stroke="#4f6698"
     stroke-width=".998"
     stroke-linejoin="round"
     stroke-opacity=".267"
     transform="matrix(.99925 -.09044 .09038 .99685 8.318 12.015)"
     id="path2440" />
  <g
     id="g2446">
    <path
       d="M25.853 16.65C33.36 14.26 58.61 6.225 58.61 6.225L71.764 47.47 39.008 57.9 25.853 16.65z"
       fill="#fafafa"
       id="path2442" />
    <path
       d="M6.5.5l35 .003v44.003h-35V.5z"
       fill="none"
       stroke="#4f6698"
       stroke-width=".998"
       stroke-linejoin="round"
       stroke-opacity=".267"
       transform="matrix(.95599 -.30436 .30414 .9537 19.023 17.9)"
       id="path2444" />
  </g>
  <g
     id="g2452">
    <path
       d="M47.82 6.24l31.865 12.89L63.43 59.255 31.563 46.368 47.819 6.24z"
       fill="#fafafa"
       id="path2448" />
    <path
       d="M6.5.5l35 .003v44.003h-35V.5z"
       fill="none"
       stroke="#4f6698"
       stroke-width=".998"
       stroke-linejoin="round"
       stroke-opacity=".267"
       transform="matrix(.93005 .37613 -.37586 .92782 41.765 2.84)"
       id="path2450" />
  </g>
  <path
     d="M83.7 20.5l-6.45 64.087c-.162 1.606-1.338 2.913-3 2.913h-52.5c-1.662 0-2.838-1.307-3-2.913L12.3 20.5z"
     fill="#1e84d6"
     stroke="#072135"
     stroke-opacity=".784"
     id="path2454"
     style="fill:#6a6a6a;fill-opacity:1" />
  <path
     d="M35.717 62.462c-.383.69-.689 1.726-.689 2.38 0 .152 0 .345.038.612l-4.798-8.25a2.14 2.14 0 0 1-.268-.999c0-.346.114-.767.268-1.035l2.303-4.03L30 49.682l8.367-.154 4.067 7.33-2.608-1.497zm3.686-24.157c.728-1.268 1.919-1.958 3.376-1.958 1.575 0 2.803.73 3.685 2.224l1.306 2.188-4.53 8.731-7.33-5.16zm.535 30.796c-2.187 0-3.99-1.804-3.99-3.991 0-.615.27-1.652.653-2.304l1.227-2.187h9.097v8.482h-6.987zm7.294-31.028c-.575-.996-1.343-1.689-2.264-2.073h9.44c.845 0 1.497.347 1.882 1l2.34 3.99 2.533-1.497-4.07 7.293-8.325-.117 2.57-1.457zM61.78 60.696c1.15 0 2.11-.307 2.916-.92l-4.76 8.289a2.073 2.073 0 0 1-1.88 1.036h-4.491v2.955l-4.298-7.177 4.298-7.177v2.994h8.215zm3.682-6.908c.346.614.539 1.266.539 1.957 0 1.382-.884 2.84-2.11 3.53-.577.309-1.386.549-2.188.501h-2.535l-4.527-7.831 7.33-4.183z"
     fill="#fff"
     id="path2456" />
</svg>
